<svg id="Layer_1" data-name="Layer 1" xmlns="http://www.w3.org/2000/svg" xmlns:xlink="http://www.w3.org/1999/xlink" viewBox="0 0 548.4 492.64"><defs><linearGradient id="linear-gradient" x1="392.53" y1="334.16" x2="394.32" y2="169.39" gradientUnits="userSpaceOnUse"><stop offset="0" stop-color="#010101" stop-opacity="0"/><stop offset="0.95" stop-color="#010101"/></linearGradient><linearGradient id="linear-gradient-2" x1="-211.48" y1="-8.75" x2="472.35" y2="343.85" gradientUnits="userSpaceOnUse"><stop offset="0" stop-color="#fff" stop-opacity="0"/><stop offset="0.07" stop-color="#fff" stop-opacity="0.22"/><stop offset="0.16" stop-color="#fff" stop-opacity="0.45"/><stop offset="0.25" stop-color="#fff" stop-opacity="0.65"/><stop offset="0.33" stop-color="#fff" stop-opacity="0.8"/><stop offset="0.4" stop-color="#fff" stop-opacity="0.91"/><stop offset="0.46" stop-color="#fff" stop-opacity="0.98"/><stop offset="0.51" stop-color="#fff"/></linearGradient><linearGradient id="linear-gradient-3" x1="179.76" y1="425.15" x2="265.95" y2="212.89" xlink:href="#linear-gradient"/><linearGradient id="linear-gradient-4" x1="163.16" y1="415.37" x2="393.96" y2="113.35" xlink:href="#linear-gradient"/><linearGradient id="linear-gradient-5" x1="231.88" y1="221.07" x2="142.66" y2="268.08" xlink:href="#linear-gradient"/><linearGradient id="linear-gradient-6" x1="199.57" y1="233.58" x2="40.36" y2="210.07" xlink:href="#linear-gradient"/><linearGradient id="linear-gradient-7" x1="244.1" y1="131.12" x2="263.72" y2="131.12" gradientTransform="translate(-86.94 171.4) rotate(-27.97)" gradientUnits="userSpaceOnUse"><stop offset="0" stop-color="#e4c5d5"/><stop offset="0.42" stop-color="#e9d3cf"/><stop offset="1" stop-color="#efe8ca"/></linearGradient><linearGradient id="linear-gradient-8" x1="187.73" y1="186" x2="281.75" y2="53.5" xlink:href="#linear-gradient"/><linearGradient id="linear-gradient-9" x1="200.34" y1="257.67" x2="247.66" y2="257.67" gradientTransform="matrix(1, 0, 0, 1, 0, 0)" xlink:href="#linear-gradient-7"/><linearGradient id="linear-gradient-10" x1="260.51" y1="257.01" x2="312.88" y2="257.01" gradientTransform="matrix(1, 0, 0, 1, 0, 0)" xlink:href="#linear-gradient-7"/><linearGradient id="linear-gradient-11" x1="263.04" y1="244.89" x2="274.44" y2="290.83" xlink:href="#linear-gradient"/><linearGradient id="linear-gradient-12" x1="312.32" y1="165.42" x2="360.05" y2="445.39" xlink:href="#linear-gradient"/><linearGradient id="linear-gradient-13" x1="314.77" y1="165.66" x2="362.11" y2="443.38" xlink:href="#linear-gradient"/><linearGradient id="linear-gradient-14" x1="292.9" y1="220.45" x2="390.19" y2="265.92" xlink:href="#linear-gradient"/><linearGradient id="linear-gradient-15" x1="265.11" y1="306.88" x2="170.02" y2="435.1" xlink:href="#linear-gradient"/><linearGradient id="linear-gradient-16" x1="292.54" y1="373.72" x2="167" y2="319.76" xlink:href="#linear-gradient"/><linearGradient id="linear-gradient-17" x1="293.31" y1="255.42" x2="294.51" y2="286.1" xlink:href="#linear-gradient"/><linearGradient id="linear-gradient-18" x1="266.37" y1="257.3" x2="267.97" y2="291.49" xlink:href="#linear-gradient"/><linearGradient id="linear-gradient-19" x1="185.98" y1="145.32" x2="243.33" y2="145.32" gradientTransform="matrix(1, 0, 0, 1, 0, 0)" xlink:href="#linear-gradient-7"/><linearGradient id="linear-gradient-20" x1="168.3" y1="150.15" x2="226.71" y2="170.09" xlink:href="#linear-gradient"/><linearGradient id="linear-gradient-21" x1="235.34" y1="153.05" x2="312.28" y2="94.91" gradientTransform="translate(222.96 -162.91) rotate(38.84)" xlink:href="#linear-gradient"/><linearGradient id="linear-gradient-22" x1="250.45" y1="140.58" x2="360.79" y2="59.93" gradientTransform="translate(222.96 -162.99) rotate(38.84)" xlink:href="#linear-gradient"/><linearGradient id="linear-gradient-23" x1="268.41" y1="129.1" x2="430.94" y2="-30.21" gradientTransform="translate(222.96 -163.08) rotate(38.84)" xlink:href="#linear-gradient"/><linearGradient id="linear-gradient-24" x1="289.62" y1="110.91" x2="532.55" y2="-112.23" gradientTransform="translate(222.96 -163.16) rotate(38.84)" gradientUnits="userSpaceOnUse"><stop offset="0" stop-color="#010101" stop-opacity="0"/><stop offset="0.36" stop-color="#010101" stop-opacity="0.36"/><stop offset="0.95" stop-color="#010101"/></linearGradient><linearGradient id="linear-gradient-25" x1="313.43" y1="91.43" x2="431.59" y2="-5.3" gradientTransform="translate(215.04 -164.51) rotate(38.6)" xlink:href="#linear-gradient-2"/><linearGradient id="linear-gradient-26" x1="316.79" y1="90.28" x2="392.99" y2="24.48" gradientTransform="translate(222.96 -163.41) rotate(38.84)" xlink:href="#linear-gradient-2"/><linearGradient id="linear-gradient-27" x1="155.28" y1="401.47" x2="434.16" y2="217.69" xlink:href="#linear-gradient"/><linearGradient id="linear-gradient-28" x1="212.19" y1="237.46" x2="221.62" y2="237.46" xlink:href="#linear-gradient"/></defs><title>Designer 3</title><path d="M555.18,195.07c-.75,22.8-9.63,44.51-19.88,64.85C518,294.3,496.1,327.28,486,364.78c-4.44,16.35-2.2,33.62-3.72,49.59-1.29,13.51-5.23,26.11-18.1,36.51-13.62,11-32.48,12.3-50,12.37-38,.23-77.45-2.58-112.52,12-10.39,4.37-20.18,10.14-30.85,13.82-20.72,7.17-43.34,5.84-65.23,4.47-21.33-1.36-43-2.8-63.19-9.67s-39.24-20-48.53-39.28c-4.56-9.45-6.61-19.88-9.57-30a87.27,87.27,0,0,0-5-13.32c-13.58-28-46.67-42-61.89-69.1C6.86,313.43,6.25,290.81,7.12,269.3c.91-22.66,3.38-45.81,13.25-66.23,10.21-21.13,27.7-37.87,46.22-52.33,33.74-26.37,71.76-46.56,107.43-70.16,27.06-17.92,52.83-37.84,81.33-53.36s60.34-26.68,92.71-25c47.13,2.35,88.65,30.89,125.15,60.76,20.84,17,41.22,35.06,56.78,57S556.13,168.2,555.18,195.07Z" transform="translate(-6.84 -2.01)" fill="#1536f1" opacity="0.24" style="isolation:isolate"/><path d="M482.28,414.37c-1.29,13.51-5.23,26.11-18.1,36.51-13.62,11-32.48,12.3-50,12.37-38,.23-77.45-2.58-112.52,12-10.39,4.37-20.18,10.14-30.85,13.82-20.72,7.17-43.34,5.84-65.23,4.47-21.33-1.36-43-2.8-63.19-9.67s-39.24-20-48.53-39.28c-4.56-9.45-6.61-19.88-9.57-30,56.74-14.31,118.93,8.69,175.52-7.36,13.28-3.8,25.92-9.64,39.35-12.9,34.91-8.54,63.91,4.66,97.83,8.5,28.27,3.15,53.36-.84,81.33,9.79C479.63,413.16,481,413.73,482.28,414.37Z" transform="translate(-6.84 -2.01)" fill="#1536f1" opacity="0.24" style="isolation:isolate"/><rect x="382.53" y="270.23" width="18.96" height="158.31" fill="#1536f1"/><rect x="382.88" y="270.23" width="18.96" height="158.31" fill="url(#linear-gradient)"/><rect x="10.78" y="24.71" width="191.49" height="261" fill="#1536f1"/><rect x="10.78" y="24.71" width="191.49" height="261" fill="url(#linear-gradient-2)"/><circle cx="133.15" cy="145.04" r="50.32" fill="#1536f1" opacity="0.3" style="isolation:isolate"/><path d="M168.13,302.46h32.19A46.59,46.59,0,0,1,246.91,349V450.62a0,0,0,0,1,0,0H121.54a0,0,0,0,1,0,0V349A46.59,46.59,0,0,1,168.13,302.46Z" fill="#1536f1"/><path d="M253.75,351.08V452.63H128.37V351.08a43.71,43.71,0,0,1,1.18-10.29A46.53,46.53,0,0,1,175,304.47h32.18A46.59,46.59,0,0,1,253.75,351.08Z" transform="translate(-6.84 -2.01)" fill="url(#linear-gradient-3)"/><path d="M253.75,351.08v33.16c-.26.34-.53.69-.79,1q-6.6-17.76-13.21-35.6c-6.6,12.38-8.08,26.91-7.13,40.88s4.13,27.7,6.41,41.51c.53,3.19,1,6.57-.26,9.56-2.59,6.15-11.54,7.37-17.12,3.72s-8.27-10.36-9.68-16.88c-4-18.71.19-38.14-1-57.23-.46-6.68-1.67-13.62-5.73-19-5.81-7.62-15.94-10.2-25.31-12.33-13.29-3-27.93-5.81-39.85.72-1.9,1-3.83,2.32-6,2.35a5.8,5.8,0,0,1-4.51-2.16A46.53,46.53,0,0,1,175,304.47h32.18A46.59,46.59,0,0,1,253.75,351.08Z" transform="translate(-6.84 -2.01)" fill="url(#linear-gradient-4)"/><path d="M177.82,172.05c-1.77,5.31-1.19,11.08-.58,16.65.11,1,.5,2.35,1.54,2.41a2.15,2.15,0,0,0,1.15-.39,16,16,0,0,0,3.95-3.37,6.68,6.68,0,0,1,2.15-2c2.07-.93,4.24.88,6.29,1.87a9.19,9.19,0,0,0,5.54.76c.49-.09,1.07-.3,1.18-.79a1.24,1.24,0,0,0-.11-.73c-1.06-2.78-3.76-4.56-5.51-7a16.37,16.37,0,0,1-2.71-8.11c-.23-2.24.76-6.24-1.18-7.86C185,159.69,178.94,168.69,177.82,172.05Z" transform="translate(-6.84 -2.01)" fill="none" stroke="#1536f1" stroke-miterlimit="10" stroke-width="0.95"/><path d="M206.3,170.55c1.5,1.46,13.19,11.78,14.14,13.65a61.48,61.48,0,0,1,4.42,10.29,67.5,67.5,0,0,1,2.1,12.17l1.91,17.22a11.29,11.29,0,0,0,1.37,5,11,11,0,0,0,4.25,3.3,223.47,223.47,0,0,0,29.28,13.06,41.83,41.83,0,0,1-.59,10.3,1.28,1.28,0,0,1-.44.9,1.31,1.31,0,0,1-.92.07c-15.8-2.83-30.68-9.67-46.51-12.29a5.46,5.46,0,0,1-2.57-.86,5.33,5.33,0,0,1-1.44-2.28c-1.27-3.07-2.55-6.15-3.56-9.32-1.46-4.57-2.37-9.3-3.75-13.89-.82-2.75-1.82-5.47-2.37-8.29-.84-4.32-.62-8.76-.39-13.15a37.23,37.23,0,0,1,1.07-8.3C203.92,182.5,200.08,164.5,206.3,170.55Z" transform="translate(-6.84 -2.01)" fill="#1536f1"/><path d="M215.91,185.51c1.5,1.46,3.58-3.18,4.53-1.31a61.48,61.48,0,0,1,4.42,10.29,67.5,67.5,0,0,1,2.1,12.17l1.91,17.22a11.29,11.29,0,0,0,1.37,5,11,11,0,0,0,4.25,3.3,223.47,223.47,0,0,0,29.28,13.06,41.83,41.83,0,0,1-.59,10.3,1.28,1.28,0,0,1-.44.9,1.31,1.31,0,0,1-.92.07c-15.8-2.83-30.68-9.67-46.51-12.29a5.46,5.46,0,0,1-2.57-.86,5.33,5.33,0,0,1-1.44-2.28c-1.27-3.07-2.55-6.15-3.56-9.32-1.46-4.57-2.37-9.3-3.75-13.89-.82-2.75-1.82-5.47-2.37-8.29-.84-4.32-.62-8.76-.39-13.15a37.23,37.23,0,0,1,1.07-8.3C203.92,182.5,209.7,179.46,215.91,185.51Z" transform="translate(-6.84 -2.01)" fill="url(#linear-gradient-5)"/><path d="M221.68,197.88l.86,24.91c.22,6.61,0,14.21-5.19,18.42-3.4,2.74-8.37,3.44-11.08,6.84-1.76,2.2-2.21,5.15-2.13,7.95.16,5.62,2.19,11,4.3,16.25a8.77,8.77,0,0,1,.95,4.28c-.32,2.78-3.09,4.57-5.66,5.78a63.07,63.07,0,0,1-38.93,4.53A64.92,64.92,0,0,1,146.12,280a3.36,3.36,0,0,1-1.56-1.36,3.3,3.3,0,0,1,.1-2.33c2.66-8.71,7.49-16.73,9.4-25.63,1.85-8.64.84-17.59,1.23-26.4a83.18,83.18,0,0,1,5.37-25.92c1.89-5,4.34-9.87,8.18-13.6,6.56-6.39,16.22-8.53,25.42-9.45a23.14,23.14,0,0,1,7.29.12c3.17.7,5.77,2.57,8.61,4,2.29,1.16,5.52,1.47,7.6,2.73C222.32,184.93,221.52,193.16,221.68,197.88Z" transform="translate(-6.84 -2.01)" fill="#1536f1"/><path d="M221.68,197.88l.86,24.91c.22,6.61,0,14.21-5.19,18.42-3.4,2.74-8.37,3.44-11.08,6.84-1.76,2.2-2.21,5.15-2.13,7.95.16,5.62,2.19,11,4.3,16.25a8.77,8.77,0,0,1,.95,4.28c-.32,2.78-3.09,4.57-5.66,5.78a63.07,63.07,0,0,1-38.93,4.53A64.92,64.92,0,0,1,146.12,280a3.36,3.36,0,0,1-1.56-1.36,3.3,3.3,0,0,1,.1-2.33c2.66-8.71,7.49-16.73,9.4-25.63,1.85-8.64.84-17.59,1.23-26.4a83.18,83.18,0,0,1,5.37-25.92c1.89-5,4.34-9.87,8.18-13.6,6.56-6.39,16.22-8.53,25.42-9.45a23.14,23.14,0,0,1,7.29.12c3.17.7,5.77,2.57,8.61,4,2.29,1.16,5.52,1.47,7.6,2.73C222.32,184.93,221.52,193.16,221.68,197.88Z" transform="translate(-6.84 -2.01)" fill="url(#linear-gradient-6)"/><path d="M192,152.87a78.07,78.07,0,0,0-1.77,12.07c-.26,3.78-.2,7.78,1.68,11.07a16,16,0,0,0,4.19,4.56,13.09,13.09,0,0,0,6.49,3.05,6.34,6.34,0,0,0,6.24-2.83c1.05-1.91.73-4.24.37-6.38l-1.06-6.49A19.84,19.84,0,0,0,206,160.8c-2.37-3.94-7.07-5.73-11.46-7.08" transform="translate(-6.84 -2.01)" fill="url(#linear-gradient-7)"/><path d="M204.05,179.44a6.27,6.27,0,0,0,2.38,1.51,2.41,2.41,0,0,0,2.58-.7,3.67,3.67,0,0,0,.51-2c.11-2.31.2-4.62.25-6.94a19.63,19.63,0,0,0-.42-5.52c-.75-2.85-2.66-5.24-4.62-7.44s-5.54-6.33-8.91-6.2c-3.7.14-2.51,5.55-2.14,7.92A33.13,33.13,0,0,0,204.05,179.44Z" transform="translate(-6.84 -2.01)" fill="url(#linear-gradient-8)"/><path d="M161.94,183.58c-1.77,3.7-2.7,7.74-3.84,11.69-1.24,4.27-2.73,8.46-3.69,12.8a107.08,107.08,0,0,0-1.88,16.29c-.36,5.65-.72,11.3-.72,17,0,4.23.38,8.89,3.39,11.87,2.33,2.3,5.74,3.06,9,3.66A265.65,265.65,0,0,0,199.41,261a3.28,3.28,0,0,0,2.43-.53,3.12,3.12,0,0,0,.79-1.83,35.59,35.59,0,0,0,.52-8.62l-29.25-9.13c-.46-15.39,6.63-30,8.71-45.2a85.27,85.27,0,0,1,1.42-9.44c.79-3.11,2.14-6.06,2.9-9.17.6-2.51,1.35-7.78-1.83-8.93-2.44-.88-6.59,1-8.8,1.89A28.32,28.32,0,0,0,161.94,183.58Z" transform="translate(-6.84 -2.01)" fill="#1536f1"/><path d="M220.44,251.22c4.41-.47,8.83-1.21,13.26-.92s9,1.74,12,5a6.81,6.81,0,0,1,1.91,3.56,3.61,3.61,0,0,1-1.49,3.58c-1.38.83-3.13.35-4.74.34-3.78,0-7.45,2.66-11.08,1.65-2.26-.64-4.09-2.63-6.43-2.71-2.79-.1-4.91,2.54-7.62,3.22-2.21.56-4.54-.25-6.5-1.41-1.47-.87-2.8-1.95-4.25-2.85-1.25-.79-3.08-1.26-4.17-2.24-1.75-1.56-1-3.14.69-4.5C206.65,250.2,214.9,251.82,220.44,251.22Z" transform="translate(-6.84 -2.01)" fill="url(#linear-gradient-9)"/><path d="M287.53,248.49a104.75,104.75,0,0,1,11.07.47,23.52,23.52,0,0,1,8.57,2.34,11.32,11.32,0,0,1,5.71,6.56c-4.31,2.37-10.28-.18-14.3,2.65a31.5,31.5,0,0,0-2.37,2.12c-3.27,2.84-7.93,3.38-12.26,3.37a26.41,26.41,0,0,1-10.42-1.68c-3.07-1.32-16.85-11.87-12-15.26,2.62-1.83,8.34-.69,11.29-.67Z" transform="translate(-6.84 -2.01)" fill="url(#linear-gradient-10)"/><polygon points="244.06 259.18 245.18 255.22 287.74 253.62 288.4 258.83 244.06 259.18" fill="#1536f1"/><polygon points="244.06 259.18 245.18 255.22 287.74 253.62 288.4 258.83 244.06 259.18" fill="url(#linear-gradient-11)"/><polygon points="368.85 236.92 249.76 236.92 265.71 152 384.8 152 368.85 236.92" fill="#1536f1"/><polygon points="384.78 151.99 368.84 236.92 249.76 236.92 265.69 151.99 384.78 151.99" fill="url(#linear-gradient-12)"/><polygon points="384.78 151.99 368.84 236.92 254.58 236.92 270.51 151.99 384.78 151.99" fill="url(#linear-gradient-13)"/><polygon points="306.39 198.1 320.99 254.02 288.4 254.02 284.13 258.83 343.43 258.83 325.27 193.11 308.97 192.58 306.39 198.1" fill="#1536f1"/><polygon points="306.39 198.1 320.99 254.02 288.4 254.02 284.13 258.83 343.43 258.83 325.27 193.11 308.97 192.58 306.39 198.1" fill="url(#linear-gradient-14)"/><polygon points="308.97 192.58 325.27 254.02 288.4 254.02 288.4 258.83 347.71 258.83 329.54 193.11 308.97 192.58" fill="#1536f1"/><path d="M312.5,435.32a2.51,2.51,0,0,1-.87,1.75c-8.69,9.18-23.72,8.8-35.45,4.1-2.05-.84-4.17-1.86-5.46-3.65-1.44-2-1.63-4.66-1.75-7.17-.91-21.93-1-44-4.89-65.65-1.29-7.29-3-14.5-3.91-21.86-1.25-10.55-.68-21.25-1.1-31.88a3.14,3.14,0,0,0-.69-2.2,2.87,2.87,0,0,0-2.08-.57c-3.15-.07-6.26-.11-9.41-.15-.08,22.32-1.56,43.57-1.14,65.88.26,12.83-2.47,25.54-3.19,38.37a26.43,26.43,0,0,0,.27,6.71c1.48,7.06,7.85,11.84,11.68,17.95a9.14,9.14,0,0,1,1.67,5.17c-.19,2.92-2.84,5.19-5.69,5.92s-5.84.07-8.65-.69a20.31,20.31,0,0,1-6-2.46,21.11,21.11,0,0,1-3.94-3.69c-2.28-2.58-4.48-5.27-6.57-8a11.55,11.55,0,0,1-2-3.45c-1.06-3.42,1-6.91,2.46-10.17a35,35,0,0,0,2-22.77,67,67,0,0,1-2.58-17q-.18-28.69-.88-57.38A212,212,0,0,1,181,323.6c-9.72-.68-20.12-2.39-27.18-9.11-7.62-7.21-9.6-18.55-9.82-29-.08-3.72,0-7.59,1.86-10.78,14.07-.11,33.16,1.41,47.24,1.29a44.09,44.09,0,0,1,9.68.65,35.13,35.13,0,0,0,4.25.23c7.13.26,21.78.68,36.39,3.56a.34.34,0,0,0,.19,0c9.34,1.86,18.64,4.71,25.92,9.26.68.42,1.37.84,2,1.29a46,46,0,0,1,3.65,2.85l.11.11a25.3,25.3,0,0,1,8.46,16.28c.12,1.14.23,2.47.31,3.95s.11,3.19.11,5c0,.64,0,1.33,0,2.05.19,19-1.33,51,.42,75.9.79,11,3.22,23.49,12.56,29.48,4.51,2.92,10.13,3.91,14.3,7.33A2.21,2.21,0,0,1,312.5,435.32Z" transform="translate(-6.84 -2.01)" fill="#606161"/><path d="M312.5,435.32a2.51,2.51,0,0,1-.87,1.75c-8.69,9.18-23.72,8.8-35.45,4.1-2.05-.84-4.17-1.86-5.46-3.65-1.44-2-1.63-4.66-1.75-7.17-.91-21.93-1-44-4.89-65.65-1.29-7.29-3-14.5-3.91-21.86-1.25-10.55-.68-21.25-1.1-31.88a3.14,3.14,0,0,0-.69-2.2,2.87,2.87,0,0,0-2.08-.57c-3.15-.07-6.26-.11-9.41-.15-.08,22.32-1.56,43.57-1.14,65.88.26,12.83-2.47,25.54-3.19,38.37a26.43,26.43,0,0,0,.27,6.71c1.48,7.06,7.85,11.84,11.68,17.95a9.14,9.14,0,0,1,1.67,5.17c-.19,2.92-2.84,5.19-5.69,5.92s-5.84.07-8.65-.69a20.31,20.31,0,0,1-6-2.46,21.11,21.11,0,0,1-3.94-3.69c-2.28-2.58-4.48-5.27-6.57-8a11.55,11.55,0,0,1-2-3.45c-1.06-3.42,1-6.91,2.46-10.17a35,35,0,0,0,2-22.77,67,67,0,0,1-2.58-17q-.18-28.69-.88-57.38A212,212,0,0,1,181,323.6c-9.72-.68-20.12-2.39-27.18-9.11-7.62-7.21-9.6-18.55-9.82-29-.08-3.72,0-7.59,1.86-10.78,14.07-.11,33.16,1.41,47.24,1.29a44.09,44.09,0,0,1,9.68.65,35.13,35.13,0,0,0,4.25.23c7.13.26,21.78.68,36.39,3.56a.34.34,0,0,0,.19,0c9.34,1.86,18.64,4.71,25.92,9.26.68.42,1.37.84,2,1.29a46,46,0,0,1,3.65,2.85l.11.11a25.3,25.3,0,0,1,8.46,16.28c.12,1.14.23,2.47.31,3.95s.11,3.19.11,5c0,.64,0,1.33,0,2.05.19,19-1.33,51,.42,75.9.79,11,3.22,23.49,12.56,29.48,4.51,2.92,10.13,3.91,14.3,7.33A2.21,2.21,0,0,1,312.5,435.32Z" transform="translate(-6.84 -2.01)" fill="url(#linear-gradient-15)"/><path d="M312.5,435.32a2.51,2.51,0,0,1-.87,1.75c-8.69,9.18-23.72,8.8-35.45,4.1-2.05-.84-4.17-1.86-5.46-3.65-1.44-2-1.63-4.66-1.75-7.17-.91-21.93-1-44-4.89-65.65-1.29-7.29-3-14.5-3.91-21.86-1.25-10.55-.68-21.25-1.1-31.88a3.14,3.14,0,0,0-.69-2.2,2.87,2.87,0,0,0-2.08-.57c-3.15-.07-6.26-.11-9.41-.15,0,0,.26-6.6-2.13-9.52S199.6,282.2,199.6,282.2s-2.73-3.61,7.44-5.35c.72-.08,1.52-.19,2.35-.31,6.3-.75,20.27.69,34,3.87a.34.34,0,0,0,.19,0c9.68,2.28,19.2,5.43,25.92,9.26.68.42,1.37.84,2,1.29a24.09,24.09,0,0,1,3.65,2.85l.11.11a15.58,15.58,0,0,1,1.78,2.13,40.09,40.09,0,0,1,7,18.1,29.58,29.58,0,0,1,.11,5,10.17,10.17,0,0,1-.15,1.48l.19.57c.19,19-1.33,51,.42,75.9.79,11,3.22,23.49,12.56,29.48,4.51,2.92,10.13,3.91,14.3,7.33A2.21,2.21,0,0,1,312.5,435.32Z" transform="translate(-6.84 -2.01)" fill="url(#linear-gradient-16)"/><rect x="165.71" y="259" width="255.6" height="13.53" fill="#1536f1"/><rect x="208.01" y="270.23" width="18.96" height="188.94" fill="#1536f1"/><rect x="165.71" y="259" width="255.66" height="4.55" fill="url(#linear-gradient-17)"/><rect x="229.64" y="271.83" width="75.15" height="13.89" fill="#1536f1"/><rect x="229.64" y="271.83" width="75.15" height="6.95" fill="url(#linear-gradient-18)"/><path d="M223.32,174.17a11.74,11.74,0,0,1-5.49,3.34c-3.34.65-6.58-1.38-9.19-3.57a53.33,53.33,0,0,1-14.79-19.87,64,64,0,0,0-3.06-6.81c-1.44-2.48-3.43-4.68-4.36-7.39s-.47-9.2,2.1-10.46a18,18,0,0,1,2.5-.76c3.1-1,5.39-.74,7.45-3.27,4.59-5.64,10.11-11.45,17.34-12.28,4.8-.55,9.54,1.24,13.93,3.25s10.49,5.24,12.61,9.83.34,11.16-.68,15.71A63.23,63.23,0,0,1,223.32,174.17Z" transform="translate(-6.84 -2.01)" fill="url(#linear-gradient-19)"/><path d="M221.13,122.48c.11,3,3.41,4.78,6.35,5.34s6.22.59,8.49,2.54c1.76,1.51,2.89,4.11,5.19,4.38a4.48,4.48,0,0,0,3-.91c3.44-2.31,4.85-6.88,4.27-11s-2.83-7.78-5.45-11C233.79,100.65,219,94,204.6,95.5s-27.8,11.77-32.14,25.6c-2.3,7.35-2.13,15.23-3.68,22.78a50.7,50.7,0,0,1-11.37,23c-6,6.85-14.17,12.76-15.81,21.7-1,5.72.94,11.67,4.2,16.5s7.68,8.72,12.06,12.56c4.36-7.32,13.87-9.33,20.89-14.14A29.21,29.21,0,0,0,191,176.63c-.73-6.39-.57-6.63,0-13,.37-3.8,3.21-5.75,2.78-9.54-.28-2.43-5.65-12.39-6.31-14.75-1.1-3.92.05-9.55,5.16-9.53,4.28,0,6.88,5.48,8.09,8.82C204.88,137.14,221.33,127.77,221.13,122.48Z" transform="translate(-6.84 -2.01)" fill="#606161"/><path d="M221.13,122.48c.11,3,3.41,4.78,6.35,5.34s6.22.59,8.49,2.54c1.76,1.51,2.89,4.11,5.19,4.38a4.48,4.48,0,0,0,3-.91c3.44-2.31,4.85-6.88,4.27-11s-2.83-7.78-5.45-11C233.79,100.65,219,94,204.6,95.5s-27.8,11.77-32.14,25.6c-2.3,7.35-2.13,15.23-3.68,22.78a50.7,50.7,0,0,1-11.37,23c-6,6.85-14.17,12.76-15.81,21.7-1,5.72.94,11.67,4.2,16.5s7.68,8.72,12.06,12.56c4.36-7.32,13.87-9.33,20.89-14.14A29.21,29.21,0,0,0,191,176.63c-.73-6.39-.57-6.63,0-13,.37-3.8,3.21-5.75,2.78-9.54-.28-2.43-5.65-12.39-6.31-14.75-1.1-3.92.05-9.55,5.16-9.53,4.28,0,6.88,5.48,8.09,8.82C204.88,137.14,221.33,127.77,221.13,122.48Z" transform="translate(-6.84 -2.01)" fill="url(#linear-gradient-20)"/><rect x="300.88" y="72.81" width="176.18" height="51.46" transform="translate(-7.12 -0.91) rotate(-0.16)" fill="#fff"/><rect x="313.21" y="86.99" width="21.52" height="34.63" transform="translate(-7.26 -0.71) rotate(-0.23)" fill="#1536f1"/><rect x="313.21" y="86.99" width="21.52" height="34.63" transform="translate(-7.26 -0.71) rotate(-0.23)" fill="url(#linear-gradient-21)"/><rect x="334.59" y="86.97" width="21.52" height="34.63" transform="translate(-7.26 -0.62) rotate(-0.23)" fill="#1536f1"/><rect x="334.59" y="86.97" width="21.52" height="34.63" transform="translate(-7.26 -0.62) rotate(-0.23)" fill="url(#linear-gradient-22)"/><rect x="355.98" y="86.95" width="21.52" height="34.63" transform="translate(-7.26 -0.54) rotate(-0.23)" fill="#1536f1"/><rect x="355.98" y="86.95" width="21.52" height="34.63" transform="translate(-7.26 -0.54) rotate(-0.23)" fill="url(#linear-gradient-23)"/><rect x="377.36" y="86.93" width="21.52" height="34.63" transform="translate(-7.26 -0.45) rotate(-0.23)" fill="#1536f1"/><rect x="377.36" y="86.93" width="21.52" height="34.63" transform="translate(-7.26 -0.45) rotate(-0.23)" fill="url(#linear-gradient-24)"/><rect x="398.74" y="86.91" width="21.52" height="34.63" transform="translate(-7.26 -0.36) rotate(-0.23)" fill="#1536f1"/><rect x="420.38" y="86.77" width="21.52" height="34.63" transform="translate(-7.26 -0.28) rotate(-0.23)" fill="#1536f1"/><rect x="441.51" y="86.87" width="21.52" height="34.63" transform="translate(-7.26 -0.19) rotate(-0.23)" fill="#1536f1"/><polygon points="432.11 119.65 413.88 119.5 413.74 84.86 431.97 85.02 432.11 119.65" fill="url(#linear-gradient-25)"/><rect x="438.89" y="86.99" width="21.52" height="34.63" transform="translate(-7.26 -0.2) rotate(-0.23)" fill="url(#linear-gradient-26)"/><rect x="201.6" y="270.23" width="18.96" height="188.94" fill="#1536f1"/><rect x="201.6" y="270.23" width="18.96" height="188.94" fill="url(#linear-gradient-27)"/><polygon points="218.6 248.5 212.19 227.48 214.5 226.24 221.62 248.68 218.6 248.5" fill="#1536f1"/><polygon points="218.6 248.5 212.19 227.48 214.5 226.24 221.62 248.68 218.6 248.5" fill="url(#linear-gradient-28)"/><circle cx="108.9" cy="85.73" r="50.32" fill="#1536f1" opacity="0.51" style="isolation:isolate"/><circle cx="74.91" cy="148.25" r="50.32" fill="#1536f1" opacity="0.51" style="isolation:isolate"/><polygon points="93.54 146.9 94.47 164.8 99.02 158.12 104.53 166.67 108.01 164.26 101.69 156.38 108.9 155.18 93.54 146.9" fill="#fff"/><rect x="36.06" y="224.81" width="89.75" height="8.55" fill="#1536f1" opacity="0.51" style="isolation:isolate"/><rect x="36.06" y="233" width="89.75" height="8.55" fill="#1536f1" opacity="0.51" style="isolation:isolate"/><rect x="36.06" y="233" width="89.75" height="8.55" fill="#1536f1" opacity="0.51" style="isolation:isolate"/></svg>