<svg id="Layer_1" data-name="Layer 1" xmlns="http://www.w3.org/2000/svg" xmlns:xlink="http://www.w3.org/1999/xlink" viewBox="0 0 533.01 402.93"><defs><linearGradient id="linear-gradient" x1="475.01" y1="246.4" x2="410.51" y2="296.41" gradientUnits="userSpaceOnUse"><stop offset="0" stop-color="#010101" stop-opacity="0"/><stop offset="0.95" stop-color="#010101"/></linearGradient><linearGradient id="linear-gradient-2" x1="469.6" y1="233.13" x2="343.09" y2="310.4" xlink:href="#linear-gradient"/><linearGradient id="linear-gradient-3" x1="92.05" y1="248.63" x2="166.83" y2="274.8" xlink:href="#linear-gradient"/><linearGradient id="linear-gradient-4" x1="109.42" y1="240.94" x2="272.54" y2="300.29" xlink:href="#linear-gradient"/><linearGradient id="linear-gradient-5" x1="266.42" y1="253.11" x2="267.05" y2="321.66" gradientUnits="userSpaceOnUse"><stop offset="0" stop-color="#fff" stop-opacity="0"/><stop offset="0.95" stop-color="#fff"/></linearGradient><linearGradient id="linear-gradient-6" x1="363.43" y1="320.76" x2="367.87" y2="212.33" xlink:href="#linear-gradient"/><linearGradient id="linear-gradient-7" x1="263.86" y1="343.49" x2="275.7" y2="235.68" xlink:href="#linear-gradient"/><linearGradient id="linear-gradient-8" x1="324.24" y1="294.23" x2="338.81" y2="294.23" xlink:href="#linear-gradient"/><linearGradient id="linear-gradient-9" x1="352.36" y1="211.36" x2="374.28" y2="211.36" gradientUnits="userSpaceOnUse"><stop offset="0" stop-color="#e5c6d6"/><stop offset="0.42" stop-color="#ead4d0"/><stop offset="1" stop-color="#f0e9cb"/></linearGradient><linearGradient id="linear-gradient-10" x1="297.94" y1="276.64" x2="320.51" y2="276.64" xlink:href="#linear-gradient-9"/><linearGradient id="linear-gradient-11" x1="348" y1="278.72" x2="375.69" y2="258.74" xlink:href="#linear-gradient"/></defs><title>Code html</title><path d="M48.76,334.7c-9.18-10.82-17.11-23-21.22-36.56-9.18-30.38,1.78-63,15.33-91.75,13-27.54,35.81-63.39,36.28-94.53.09-5.62-1.38-11.14-2.26-16.7A80.36,80.36,0,0,1,98.2,27.83,80.84,80.84,0,0,1,148.83,4.07c60.07-5.47,125,19.22,162.93,24.24,43.69,5.79,88.39-8,131.91-1,38.73,6.21,76.26-11.88,96.44,21.76s22.28,118.5,7.23,154.73c-5.56,13.39-13.52,25.84-17.29,39.84-4.14,15.4-2.93,31.75-.18,47.46,2.19,12.54,5.35,25.22,3.66,37.84-2,15-10.77,28.38-21.5,39.05-29.7,29.54-74.1,40.4-115.91,37.86s-81.89-17-121-31.93c-9.4-3.6-18.85-7.26-28.78-8.93-11.35-1.9-23-1.13-34.43-.15-32.12,2.71-65.71,12.56-97.64,13.09C89.24,378.35,63.9,352.56,48.76,334.7Z" transform="translate(-24.16 -3.28)" fill="#118bee" opacity="0.24" style="isolation:isolate"/><path d="M470.53,222c1.32-3.53.83-7.47,1.41-11.2a10.39,10.39,0,0,1,1.92-4.93,7.27,7.27,0,0,1,7.49-2.45c3.57,1,5.84,4.71,6.24,8.39s-.69,7.34-1.89,10.84c-2.51,7.27-5.51,14.36-8.07,21.61-2.11,6-3.47,13.76,1.45,17.79,1.26,1,2.84,1.69,3.91,2.92a8.16,8.16,0,0,1,1.65,3.89c1.93,10.21-5.34,20.13-14,25.81-2.88,1.88-6.09,3.5-9.52,3.59-5.42.13-10.35-3.72-12.86-8.53s-3-10.4-2.9-15.82a175.45,175.45,0,0,1,1.9-20.59c.72-5.44,1.46-11,3.5-16,1.55-3.86,4.74-10,9.18-10.9S468.14,228.4,470.53,222Z" transform="translate(-24.16 -3.28)" fill="#118bee"/><path d="M468.66,221.79c1.32-3.54.83-7.47,1.41-11.2a10.42,10.42,0,0,1,1.92-4.94,7.27,7.27,0,0,1,7.49-2.44c3.57,1,5.84,4.71,6.24,8.38s-.69,7.34-1.89,10.84c-2.51,7.27-5.51,14.36-8.07,21.62-2.11,6-3.47,13.75,1.45,17.78,1.26,1,2.84,1.7,3.91,2.93a8.13,8.13,0,0,1,1.65,3.88c1.93,10.22-5.34,20.13-14,25.82-2.88,1.88-6.09,3.5-9.52,3.58-5.42.14-10.35-3.72-12.86-8.52s-3-10.41-2.9-15.83a175.85,175.85,0,0,1,1.9-20.59c.72-5.44,1.46-10.94,3.5-16,1.55-3.85,4.74-9.94,9.19-10.89S466.27,228.17,468.66,221.79Z" transform="translate(-24.16 -3.28)" fill="url(#linear-gradient)"/><path d="M480.49,176.34c-10.4,17.26-7.49,40.57-19.45,56.8-3.63,4.93-8.46,8.92-11.72,14.11s-4.58,12.37-.82,17.2c10.12-5.87,13.65-18.42,18.69-29a5.68,5.68,0,0,1,1.64-2.29c2.73-1.93,6.12,1.85,6.42,5.18.81,8.87-6.71,16.09-9.82,24.43-3.9,10.46-1.11,23.58-8.51,31.94-1.5,1.69-3.52,3.13-5.79,3.14a9.37,9.37,0,0,1-4.64-1.55,40.21,40.21,0,0,1-19.73-30.41c-1.07-10.66.18-23.16,6.71-31.65,5.33-6.93,5.16-14.28,8.42-22.6A61.08,61.08,0,0,1,457.48,189a57.21,57.21,0,0,1,10.73-7.75C470.39,180.06,479.52,178,480.49,176.34Z" transform="translate(-24.16 -3.28)" fill="#118bee"/><path d="M479.09,176.34c-10.4,17.26-7.5,40.57-19.45,56.8-3.63,4.93-8.46,8.92-11.72,14.11s-4.58,12.37-.83,17.2c10.13-5.87,13.65-18.42,18.7-29a5.58,5.58,0,0,1,1.64-2.29c2.73-1.93,6.12,1.85,6.42,5.18.81,8.87-6.71,16.09-9.82,24.43-3.9,10.46-1.11,23.58-8.51,31.94-1.5,1.69-3.53,3.13-5.79,3.14a9.44,9.44,0,0,1-4.65-1.55,40.26,40.26,0,0,1-19.73-30.41c-1.06-10.66.19-23.16,6.71-31.65,5.34-6.93,5.17-14.28,8.43-22.6A61.08,61.08,0,0,1,456.08,189a57.21,57.21,0,0,1,10.73-7.75C469,180.06,478.12,178,479.09,176.34Z" transform="translate(-24.16 -3.28)" fill="url(#linear-gradient-2)"/><path d="M107.8,241.52c-2-6-2.8-12.27-4.69-18.27s-5.2-11.95-10.72-14.95-13.57-1.88-16.61,3.63a12.82,12.82,0,0,0-1.25,7.7c1.1,9.29,8.84,16.56,10.9,25.69,1.23,5.42.34,11.11,1.14,16.62A27.83,27.83,0,0,0,98.72,281c3.7,2.42,7.94,3.92,11.72,6.22a32,32,0,0,1,11.7,12.57,29,29,0,0,0,9.5-22.61C130.79,258.79,113,256.84,107.8,241.52Z" transform="translate(-24.16 -3.28)" fill="#118bee"/><path d="M107.8,241.52c-2-6-2.8-12.27-4.69-18.27s-5.2-11.95-10.72-14.95-13.57-1.88-16.61,3.63a12.82,12.82,0,0,0-1.25,7.7c1.1,9.29,8.84,16.56,10.9,25.69,1.23,5.42.34,11.11,1.14,16.62A27.83,27.83,0,0,0,98.72,281c3.7,2.42,7.94,3.92,11.72,6.22a32,32,0,0,1,11.7,12.57,29,29,0,0,0,9.5-22.61C130.79,258.79,113,256.84,107.8,241.52Z" transform="translate(-24.16 -3.28)" fill="url(#linear-gradient-3)"/><path d="M129.11,208.51c-.81-3.91-.78-8-2-11.81s-4.12-7.51-8.1-7.91c-4.58-.46-8.56,3.79-9.49,8.3s.37,9.15,1.67,13.57l5.07,17.3c1.58,5.37,2.54,12.47-2.25,15.37a30.9,30.9,0,0,1-3.5,1.49,11.24,11.24,0,0,0-6.5,10.54c.26,5.46,4.39,9.81,8,13.93s7.07,9.36,5.69,14.65c-1,3.92-4.63,7.32-3.88,11.3.61,3.3,4.21,5.35,7.57,5.38s6.52-1.46,9.55-2.92l14.47-7c4.65-2.25,9.54-4.7,12.32-9.06a22.44,22.44,0,0,0,2.92-9.88,55.2,55.2,0,0,0-10-37.23C143.57,224.68,131.9,221.94,129.11,208.51Z" transform="translate(-24.16 -3.28)" fill="#118bee"/><path d="M129.11,208.51c-.81-3.91-.78-8-2-11.81s-4.12-7.51-8.1-7.91c-4.58-.46-8.56,3.79-9.49,8.3s.37,9.15,1.67,13.57l5.07,17.3c1.58,5.37,2.54,12.47-2.25,15.37a30.9,30.9,0,0,1-3.5,1.49,11.24,11.24,0,0,0-6.5,10.54c.26,5.46,4.39,9.81,8,13.93s7.07,9.36,5.69,14.65c-1,3.92-4.63,7.32-3.88,11.3.61,3.3,4.21,5.35,7.57,5.38s6.52-1.46,9.55-2.92l14.47-7c4.65-2.25,9.54-4.7,12.32-9.06a22.44,22.44,0,0,0,2.92-9.88,55.2,55.2,0,0,0-10-37.23C143.57,224.68,131.9,221.94,129.11,208.51Z" transform="translate(-24.16 -3.28)" fill="url(#linear-gradient-4)"/><rect x="118.36" y="81.31" width="299.13" height="193.31" rx="15.89" fill="#118bee"/><rect x="125.53" y="88.79" width="282.26" height="182.4" rx="14.99" fill="#fff"/><g opacity="0.52"><rect x="165.96" y="128.43" width="56.76" height="4.16" fill="#118bee"/><rect x="165.96" y="136.48" width="34.64" height="3.91" fill="#118bee"/><rect x="214.58" y="136.48" width="109.02" height="3.93" fill="#118bee"/><rect x="183.97" y="144.56" width="47.64" height="4.12" fill="#118bee"/><rect x="199.26" y="152.61" width="56.76" height="4.16" fill="#118bee"/><rect x="259.72" y="152.61" width="47.57" height="4.62" fill="#118bee"/><rect x="199.18" y="160.67" width="43.83" height="3.91" fill="#118bee"/><rect x="247.21" y="160.67" width="90.44" height="4.33" fill="#118bee"/><rect x="165.96" y="171.57" width="56.76" height="4.16" fill="#118bee"/><rect x="165.96" y="179.62" width="34.64" height="3.91" fill="#118bee"/><rect x="214.58" y="179.62" width="109.02" height="3.93" fill="#118bee"/><rect x="183.97" y="187.68" width="47.64" height="4.12" fill="#118bee"/><rect x="199.26" y="195.75" width="56.76" height="4.16" fill="#118bee"/><rect x="259.72" y="195.75" width="47.57" height="4.62" fill="#118bee"/><rect x="199.18" y="203.81" width="43.83" height="3.91" fill="#118bee"/><rect x="247.21" y="203.81" width="90.44" height="4.33" fill="#118bee"/><rect x="165.96" y="214.71" width="56.76" height="4.16" fill="#118bee"/><rect x="165.96" y="222.76" width="34.64" height="3.91" fill="#118bee"/><rect x="214.58" y="222.76" width="109.02" height="3.93" fill="#118bee"/><rect x="183.97" y="230.82" width="47.64" height="4.12" fill="#118bee"/><rect x="199.26" y="238.87" width="56.76" height="4.16" fill="#118bee"/><rect x="259.72" y="238.87" width="47.57" height="4.62" fill="#118bee"/><rect x="199.18" y="246.95" width="43.83" height="3.91" fill="#118bee"/><rect x="247.21" y="246.95" width="90.44" height="4.33" fill="#118bee"/></g><rect x="76.79" y="140.94" width="130.99" height="48.05" rx="14.26" transform="translate(260.4 326.65) rotate(-180)" fill="#118bee" opacity="0.24" style="isolation:isolate"/><polygon points="127.94 273.16 72.33 315.03 461.65 315.03 407.28 272.54 127.94 273.16" fill="#118bee"/><polygon points="127.94 273.16 72.33 315.03 461.65 315.03 407.28 272.54 127.94 273.16" fill="url(#linear-gradient-5)"/><path d="M405.39,293.39c2.08.67,3.66,3.26,2.48,5.11-.9,1.41-3.17,2.33-2.71,3.94l5.32,2.68a2.91,2.91,0,0,1,1.44,1.18c.76,1.65-1.72,2.83-3.53,3l-41.73,3.35c-5.6.45-11.3.89-16.77-.39a54.13,54.13,0,0,1-10.7-4.19l-15.3-7.27c-2.27-1.08-4.64-2.24-6.14-4.26s-1.8-5.18,0-6.89c1.3-1.2,3.21-1.38,5-1.48a283.55,283.55,0,0,1,42.83.84q10.38,1,20.68,2.76c3.42.58,7.12,1.84,10.56,2C399.6,293.89,402.67,292.5,405.39,293.39Z" transform="translate(-24.16 -3.28)" fill="url(#linear-gradient-6)"/><polygon points="88.26 330.34 72.33 315.03 461.65 315.03 447.27 331.28 88.26 330.34" fill="#118bee"/><polygon points="88.26 330.34 72.33 315.03 461.65 315.03 447.27 331.28 88.26 330.34" fill="url(#linear-gradient-7)"/><polygon points="223.24 308.47 239.8 295.34 300.42 295.03 317.92 308.15 223.24 308.47" fill="#118bee" opacity="0.58" style="isolation:isolate"/><polygon points="107.95 292.95 422.9 292.53 406.03 278.78 127.32 278.78 107.95 292.95" fill="#118bee" opacity="0.58" style="isolation:isolate"/><path d="M325.94,294.21a30.67,30.67,0,0,0,7.36,5.56c1.44.87,3.37,1.71,4.67.65s.92-3,.26-4.43c-1.69-3.71-5.67-7.69-9.88-8.35C323.64,286.9,323.18,291.08,325.94,294.21Z" transform="translate(-24.16 -3.28)" fill="#606161"/><path d="M325.94,294.21a30.67,30.67,0,0,0,7.36,5.56c1.44.87,3.37,1.71,4.67.65s.92-3,.26-4.43c-1.69-3.71-5.67-7.69-9.88-8.35C323.64,286.9,323.18,291.08,325.94,294.21Z" transform="translate(-24.16 -3.28)" fill="url(#linear-gradient-8)"/><path d="M348.35,237.46l-11.86,27.77-18,4.68-2.1,11.21,29.68-5.84,14-16.82s2-19.7-1.25-27.34C357.32,227.54,349.87,233.88,348.35,237.46Z" transform="translate(-24.16 -3.28)" fill="#118bee"/><g opacity="0.24" style="isolation:isolate"><rect x="327.13" y="36.75" width="180.41" height="83.19" rx="12.77" fill="#118bee"/><polygon points="327.13 137.08 327.13 106.86 352.68 106.86 327.13 137.08" fill="#118bee"/></g><rect x="327.13" y="29.12" width="180.41" height="83.19" rx="12.77" fill="#fff"/><polygon points="327.13 129.45 327.13 99.23 352.68 99.23 327.13 129.45" fill="#fff"/><rect x="74.45" y="136.74" width="130.99" height="48.05" rx="14.26" transform="translate(255.72 318.24) rotate(-180)" fill="#fff"/><g opacity="0.52"><rect x="70.5" y="144.04" width="30.48" height="2.24" fill="#118bee"/><rect x="70.5" y="148.36" width="18.61" height="2.1" fill="#118bee"/><rect x="96.62" y="148.36" width="58.55" height="2.11" fill="#118bee"/><rect x="80.18" y="152.7" width="25.58" height="2.21" fill="#118bee"/><rect x="88.39" y="157.03" width="30.48" height="2.24" fill="#118bee"/><rect x="120.86" y="157.03" width="25.55" height="2.48" fill="#118bee"/><rect x="88.35" y="161.35" width="23.54" height="2.1" fill="#118bee"/><rect x="114.14" y="161.35" width="48.57" height="2.33" fill="#118bee"/><rect x="70.5" y="167.2" width="30.48" height="2.24" fill="#118bee"/><rect x="70.5" y="171.53" width="18.61" height="2.1" fill="#118bee"/><rect x="96.62" y="171.53" width="58.55" height="2.11" fill="#118bee"/></g><path d="M272.16,116.94l.54-2.79c.1-.52.19-1.05.29-1.63.88.15,1.72.28,2.56.45a.44.44,0,0,0,.58-.28c.38-.74.8-1.46,1.25-2.16a.42.42,0,0,0,0-.61c-.56-.65-1.11-1.32-1.69-2l3.64-3.06c.57.67,1.13,1.32,1.66,2a.47.47,0,0,0,.67.15,18.42,18.42,0,0,1,2.25-.83c.36-.1.44-.24.43-.57,0-.84,0-1.67,0-2.53h4.76c0,.85,0,1.69,0,2.54,0,.34.09.46.43.56a19.52,19.52,0,0,1,2.25.83.47.47,0,0,0,.67-.16c.53-.66,1.08-1.3,1.65-2l3.65,3.06-1.87,2.23c.5.94,1,1.83,1.48,2.7a.53.53,0,0,0,.44.13l2.6-.45.83,4.68c-.89.16-1.75.3-2.6.47-.14,0-.35.16-.37.27-.17,1-.31,2-.46,3l2.51,1.46-2.38,4.12-2.53-1.45c-.82.65-1.61,1.27-2.38,1.92a.44.44,0,0,0-.08.4c.29.84.6,1.68.91,2.55l-4.47,1.63c-.27-.76-.57-1.5-.81-2.26-.14-.44-.33-.57-.81-.53a16.33,16.33,0,0,1-2.32,0c-.28,0-.39.06-.47.32-.28.81-.59,1.62-.91,2.48L279.54,130l1-2.76L278,125.09l-2.55,1.47-2.38-4.12c.78-.45,1.52-.89,2.27-1.31a.42.42,0,0,0,.24-.56,23.22,23.22,0,0,1-.42-2.33c0-.38-.13-.56-.56-.61-.82-.1-1.64-.27-2.46-.42Zm14.57-5.68a6.08,6.08,0,1,0,6,6.19A6.11,6.11,0,0,0,286.73,111.26Z" transform="translate(-24.16 -3.28)" fill="#118bee" opacity="0.24" style="isolation:isolate"/><path d="M387.17,74l18.47-9.52v2.75L390.07,75v.07l15.57,7.81v2.75l-18.47-9.52Z" transform="translate(-24.16 -3.28)" fill="#118bee"/><path d="M411.19,57.36h3.5v12h.08a6.55,6.55,0,0,1,2.51-2.47,7.3,7.3,0,0,1,3.59-1c2.58,0,6.72,1.59,6.72,8.24V85.63h-3.5V74.56c0-3.11-1.15-5.74-4.46-5.74a5,5,0,0,0-4.7,3.51,4.18,4.18,0,0,0-.24,1.67V85.63h-3.5Z" transform="translate(-24.16 -3.28)" fill="#118bee"/><path d="M437.36,60.82v5.54h5V69h-5V79.41c0,2.39.68,3.75,2.63,3.75a7.8,7.8,0,0,0,2-.24l.16,2.63a8.86,8.86,0,0,1-3.11.47,4.84,4.84,0,0,1-3.78-1.47c-1-1-1.36-2.75-1.36-5V69h-3V66.36h3V61.74Z" transform="translate(-24.16 -3.28)" fill="#118bee"/><path d="M446.33,71.57c0-2-.05-3.62-.17-5.21h3.07l.16,3.1h.12a6.64,6.64,0,0,1,6.05-3.54A5.7,5.7,0,0,1,461,69.78h.08a7.79,7.79,0,0,1,2.15-2.51,6.53,6.53,0,0,1,4.26-1.35c2.54,0,6.33,1.67,6.33,8.36V85.63h-3.43V74.72c0-3.71-1.35-5.94-4.18-5.94A4.55,4.55,0,0,0,462.09,72a5.73,5.73,0,0,0-.28,1.75V85.63h-3.42V74.08c0-3.07-1.36-5.3-4-5.3A5.24,5.24,0,0,0,449.75,74V85.63h-3.42Z" transform="translate(-24.16 -3.28)" fill="#118bee"/><path d="M479.55,57.36h3.5V85.63h-3.5Z" transform="translate(-24.16 -3.28)" fill="#118bee"/><path d="M507.15,76.15l-18.47,9.48V82.88l15.68-7.81V75l-15.68-7.81V64.44l18.47,9.48Z" transform="translate(-24.16 -3.28)" fill="#118bee"/><path d="M326.19,271.5c-3.1.58-6.11,3.39-6.07,6.93,0,2.84,1.91,5.17,3.71,7.16,11.12,12.26,25,23.13,40.6,23.12,5.1,0,10.14-1.19,15.24-1.52,3.38-.22,6.88-.08,10-1.59,4.64-2.25,7.36-7.61,9.75-12.63L407,277.16c1.78-3.73,3.55-8.36,1.58-12-1.8-3.29-5.85-3.88-9.25-3.33-6.82,1.1-12.89,5.26-19.11,8.61-7.78,4.2-18.2,9.54-27.07,8.59S335.3,269.79,326.19,271.5Z" transform="translate(-24.16 -3.28)" fill="#606161"/><path d="M350,272.28c1.26,5.63,3.18,11.47,7.57,15.21,4.15,3.55,9.87,4.65,15.33,4.85,4.74.17,9.66-.29,13.8-2.6,6.15-3.45,3.9-20.51,4.49-27.54s7.76-6.37,5.61-13.09c-2.33-7.26-8.53-12.34-13.84-17.81a18.36,18.36,0,0,0-5-3.79c-4.17-2-9.06-1.84-13.71-1.57-1.83.1-8.12,3.39-9.18,4.86C345.41,244.07,346.46,256.58,350,272.28Z" transform="translate(-24.16 -3.28)" fill="#118bee"/><path d="M354.05,207.31a6.69,6.69,0,0,0-1.44,1.71,4,4,0,0,0,.35,3.41,24.77,24.77,0,0,1,1.65,3.14c.68,2.05.3,4.73,2.08,5.94,1.26.85,3.15.54,4.18,1.65,1.21,1.32.45,3.84,1.91,4.87a3.51,3.51,0,0,0,1.69.47,15.62,15.62,0,0,0,5.06,0,5.4,5.4,0,0,0,3.93-2.92,7.76,7.76,0,0,0,.44-2.92l.35-14.19a29,29,0,0,0-.36-6.72,9.72,9.72,0,0,0-3.26-5.75,10.18,10.18,0,0,0-5.48-1.94,7.63,7.63,0,0,0-5.23,1.09C356.14,197.94,357.37,203.94,354.05,207.31Z" transform="translate(-24.16 -3.28)" fill="url(#linear-gradient-9)"/><path d="M359.87,200.27c1.18.79,2.56,1.24,3.76,2a8.52,8.52,0,0,1,3.78,6,22,22,0,0,1,2-2.42,7.85,7.85,0,0,1,1.91,2.46,2.64,2.64,0,0,1-.47,2.91c-.46.41-1.13.62-1.4,1.18-.48,1,.71,1.94,1.28,2.89.66,1.12.48,2.51.5,3.81s.43,2.82,1.65,3.27c1.62.59,3.11-1.12,4-2.61a30.47,30.47,0,0,0,3.69-8,11.44,11.44,0,0,0-.92-8.6c-.82-1.37-2-2.5-2.73-3.93-1.13-2.26-.91-5-2.11-7.26-1.89-3.55-10.31-6.43-14.22-5.24C354.67,188.54,355.49,197.38,359.87,200.27Z" transform="translate(-24.16 -3.28)" fill="#606161"/><path d="M309.1,272.31a19,19,0,0,0-6.24,2.79,26.65,26.65,0,0,0-4.29,4.27,1.72,1.72,0,0,0-.59,1.47,1.32,1.32,0,0,0,.71.74c1.46.76,3.23.22,4.81-.25a48.2,48.2,0,0,1,5-1.24c.9-.18,2.05-.22,2.49.58.18.33.19.73.38,1.06a1.51,1.51,0,0,0,1.71.53,4.56,4.56,0,0,0,1.59-1.07l3.9-3.58a7.07,7.07,0,0,0,1.3-1.43,5,5,0,0,0,.46-3.66c-.61-1.87-.4-1.43-2.39-1.54A29.63,29.63,0,0,0,309.1,272.31Z" transform="translate(-24.16 -3.28)" fill="url(#linear-gradient-10)"/><path d="M349.57,270.73l8.53-15-.55,31.72S351.91,285.1,349.57,270.73Z" transform="translate(-24.16 -3.28)" fill="url(#linear-gradient-11)"/></svg>