<svg id="Layer_1" data-name="Layer 1" xmlns="http://www.w3.org/2000/svg" xmlns:xlink="http://www.w3.org/1999/xlink" viewBox="0 0 424.64 361.51"><defs><linearGradient id="linear-gradient" x1="168.47" y1="299.34" x2="178.2" y2="264.05" gradientUnits="userSpaceOnUse"><stop offset="0" stop-opacity="0"/><stop offset="0.99"/></linearGradient><linearGradient id="linear-gradient-2" x1="0.2" y1="321.41" x2="424.64" y2="321.41" xlink:href="#linear-gradient"/><linearGradient id="linear-gradient-3" x1="161.69" y1="303" x2="182.67" y2="368.27" gradientUnits="userSpaceOnUse"><stop offset="0" stop-opacity="0"/><stop offset="0.8"/></linearGradient><linearGradient id="linear-gradient-4" x1="63.21" y1="296.99" x2="85.06" y2="367.8" xlink:href="#linear-gradient-3"/><linearGradient id="linear-gradient-5" x1="64.3" y1="279.43" x2="83.08" y2="279.43" gradientUnits="userSpaceOnUse"><stop offset="0" stop-color="#e5c5d5"/><stop offset="0.42" stop-color="#ead4d1"/><stop offset="1" stop-color="#f0e9cb"/></linearGradient><linearGradient id="linear-gradient-6" x1="72.47" y1="290.64" x2="75.85" y2="252.29" xlink:href="#linear-gradient"/><linearGradient id="linear-gradient-7" x1="398.67" y1="293.69" x2="378.27" y2="363.33" xlink:href="#linear-gradient"/><linearGradient id="linear-gradient-8" x1="381.5" y1="265.7" x2="397.13" y2="265.7" gradientUnits="userSpaceOnUse"><stop offset="0" stop-color="#867580"/><stop offset="0.57" stop-color="#9b8f8e"/></linearGradient><linearGradient id="linear-gradient-9" x1="232" y1="271.92" x2="257.17" y2="271.92" xlink:href="#linear-gradient-5"/><linearGradient id="linear-gradient-10" x1="283.1" y1="292.13" x2="305.54" y2="377.5" xlink:href="#linear-gradient"/><linearGradient id="linear-gradient-11" x1="341.42" y1="323.09" x2="368.53" y2="323.09" xlink:href="#linear-gradient-8"/><linearGradient id="linear-gradient-12" x1="51.8" y1="246.47" x2="95.32" y2="246.47" xlink:href="#linear-gradient-5"/><linearGradient id="linear-gradient-13" x1="84.53" y1="277.64" x2="104.19" y2="277.64" xlink:href="#linear-gradient-5"/><linearGradient id="linear-gradient-14" x1="279.98" y1="258.87" x2="320.02" y2="258.87" xlink:href="#linear-gradient-5"/><linearGradient id="linear-gradient-15" x1="370.03" y1="239.3" x2="406.26" y2="239.3" xlink:href="#linear-gradient-8"/><linearGradient id="linear-gradient-16" x1="399.2" y1="249.45" x2="406.61" y2="249.45" xlink:href="#linear-gradient-8"/><linearGradient id="linear-gradient-17" x1="371.87" y1="250.74" x2="380.1" y2="250.74" xlink:href="#linear-gradient-8"/><linearGradient id="linear-gradient-18" x1="191.17" y1="283.65" x2="205.11" y2="283.65" xlink:href="#linear-gradient-5"/><linearGradient id="linear-gradient-19" x1="177.07" y1="328.49" x2="204.21" y2="328.49" xlink:href="#linear-gradient-5"/><linearGradient id="linear-gradient-20" x1="169.36" y1="285.02" x2="183.61" y2="285.02" xlink:href="#linear-gradient-5"/><linearGradient id="linear-gradient-21" x1="171.8" y1="293.1" x2="187.86" y2="268.29" xlink:href="#linear-gradient"/><linearGradient id="linear-gradient-22" x1="161.63" y1="263.92" x2="194.65" y2="263.92" xlink:href="#linear-gradient-5"/><linearGradient id="linear-gradient-23" x1="162.51" y1="274.4" x2="169.03" y2="274.4" xlink:href="#linear-gradient-5"/><linearGradient id="linear-gradient-24" x1="253.15" y1="323.79" x2="274.58" y2="323.79" xlink:href="#linear-gradient-5"/></defs><title>Looking for idea with team</title><path d="M20.73,280c-2.34-28.21-4.44-57.91,7.53-83.57A164.3,164.3,0,0,1,54,158c9.24-10.22,23.76-12.83,35.55-19,19.1-10,31.89-28.77,42.4-47.59s19.8-38.81,35-54.13C183.81,20.22,207.15,10.19,231,7.75s48.19,2.4,70.18,12c10.08,4.41,19.85,9.9,27.75,17.57,16.58,16.11,23,39.61,31.65,61.05a263.44,263.44,0,0,0,16.72,34.12c5.67,9.72,14.1,18.73,18.92,28.75s7.75,19.95,13.92,29.53c5.82,9.05,12.26,17.72,17.47,27.16a120.07,120.07,0,0,1,14,71.31c-1.47,12.57-5.13,25.23-12.92,35.2-8.51,10.89-21.16,17.66-33.86,23.11a263.48,263.48,0,0,1-165.55,13.59c-19.67-4.85-39-12-59.18-13.34-20.38-1.34-40.61,3.34-60.9,5.66-19.66,2.25-48.74,2.64-66.06-8.72C24.51,332.51,22.36,299.7,20.73,280Z" transform="translate(-18.92 -7.12)" fill="#118bee" opacity="0.18" style="isolation:isolate"/><path d="M196.8,253.57c.58,9.25-1,18.56-.14,27.79.3,3,.85,6.14-.15,9a10.32,10.32,0,0,1-5.1,5.62c-5.47,2.8-12.58,1-16.85-3.45s-6-10.86-5.65-17,2.49-12,5.05-17.6c2.3-5,6.18-14.87,11.87-17C193.18,238.25,196.48,248.33,196.8,253.57Z" transform="translate(-18.92 -7.12)" fill="#3e3e54"/><path d="M187.09,236.82c-2.29-4.14-8.62-5.87-13.19-3.6a34.34,34.34,0,0,1-4.23,2.26c-1.72.58-3.59.43-5.39.61-5.79.6-10.92,5.11-11.79,10.35-.49,3,.27,6-.21,9-1.13,7.08-8.86,12.42-9.64,19.53-.25,2.31.27,4.61.47,6.91a25.64,25.64,0,0,1-2.18,12.61c-1.27,2.83-3.06,5.53-3.53,8.54-.93,6,4.1,11.76,10.4,13.6s13.38.39,19.35-2.44c6.58-3.12,12.44-8.23,14.42-14.7,3.1-10.09-3.71-20.82-.65-30.92a56.61,56.61,0,0,1,3-6.85C186.92,255.16,190.79,243.53,187.09,236.82Z" transform="translate(-18.92 -7.12)" fill="#3e3e54"/><path d="M161.57,275.31c.07-2.73-.36-6,1.72-7.73a1.17,1.17,0,0,1,.64-.31,1.35,1.35,0,0,1,.66.21,21.72,21.72,0,0,1,6,4.85c2.08,2.41,3.7,5.33,6.38,7,1.08.69,2.29,1.15,3.41,1.75a15,15,0,0,1,5.64,5.33,2.48,2.48,0,0,1,.47,1.89c-.25.85-1.23,1.22-2.1,1.39a33.12,33.12,0,0,1-7.58.4q-5.18-.14-10.35-.42a29.77,29.77,0,0,1-6.59-.87c-.92-.26-2.61-.9-2.84-2s1.28-2.22,1.89-3.15A16.27,16.27,0,0,0,161.57,275.31Z" transform="translate(-18.92 -7.12)" fill="url(#linear-gradient)"/><rect x="0.2" y="317.3" width="424.44" height="15.57" fill="#118bee"/><rect x="0.2" y="317.3" width="424.44" height="8.22" fill="url(#linear-gradient-2)"/><path d="M198,300.52l3.23,26.77a584.39,584.39,0,0,1-69.78-.6c-.52-4.81,1.25-9.55,3.1-14,4.6-11.08,11.06-22.94,22.49-26.57,8.74-2.78,16.41.69,25,1.55,4.26.43,8.93-1,12.3,2.39C196.92,292.66,197.57,297,198,300.52Z" transform="translate(-18.92 -7.12)" fill="#118bee"/><path d="M198,300.52l3.23,26.77a584.39,584.39,0,0,1-69.78-.6c-.52-4.81,1.25-9.55,3.1-14,4.6-11.08,11.06-22.94,22.49-26.57,8.74-2.78,16.41.69,25,1.55,4.26.43,8.93-1,12.3,2.39C196.92,292.66,197.57,297,198,300.52Z" transform="translate(-18.92 -7.12)" fill="url(#linear-gradient-3)"/><path d="M95.39,284.7c2.72.65,5.51,1.44,7.7,3.18a18.55,18.55,0,0,1,4.16,5.18,74.4,74.4,0,0,1,10,29.27,4.46,4.46,0,0,1-.2,2.51c-.75,1.52-2.81,1.71-4.51,1.69l-78.9-.85-8.91.56c2-8.88,7.82-38.34,20.35-42.16a98.86,98.86,0,0,1,15.29-2.58,146.56,146.56,0,0,1,16.1.22A120.87,120.87,0,0,1,95.39,284.7Z" transform="translate(-18.92 -7.12)" fill="#118bee"/><path d="M95.39,284.7c2.72.65,5.51,1.44,7.7,3.18a18.55,18.55,0,0,1,4.16,5.18,74.4,74.4,0,0,1,10,29.27,4.46,4.46,0,0,1-.2,2.51c-.75,1.52-2.81,1.71-4.51,1.69l-78.9-.85-8.91.56c2-8.88,7.82-38.34,20.35-42.16a98.86,98.86,0,0,1,15.29-2.58,146.56,146.56,0,0,1,16.1.22A120.87,120.87,0,0,1,95.39,284.7Z" transform="translate(-18.92 -7.12)" fill="url(#linear-gradient-4)"/><path d="M83.05,282.14a13.27,13.27,0,0,1-.5,3.87c-1.1,3.27-4.9,5.17-8.31,4.67a11.12,11.12,0,0,1-7.92-6.06,20.93,20.93,0,0,1-2-10,7.42,7.42,0,0,1,1.13-4.45,6.05,6.05,0,0,1,4.49-2,11.74,11.74,0,0,1,8.35,2.8c1.13,1,3.33,1.82,4,2.9C83.11,275.36,83.12,280.32,83.05,282.14Z" transform="translate(-18.92 -7.12)" fill="url(#linear-gradient-5)"/><path d="M65.39,271.93s10.5,16.53,14.32,11.83a12.15,12.15,0,0,0,2.52-9.94Z" transform="translate(-18.92 -7.12)" fill="url(#linear-gradient-6)"/><path d="M103.6,283.39l-6.23,4.26a5.84,5.84,0,0,0-1.3,1.07,5.93,5.93,0,0,0-1,2.61,135.9,135.9,0,0,0-2.77,29,7.43,7.43,0,0,0,.45,3,5.38,5.38,0,0,0,2.66,2.49c2.29,1.11,4.92,1.2,7.46,1.27l10.09.27a7.78,7.78,0,0,0,3-.32c2.33-.9,3.24-3.79,3.06-6.28a23.9,23.9,0,0,0-2.28-7.54l-6.86-16.08C108.22,293.15,106.78,286.4,103.6,283.39Z" transform="translate(-18.92 -7.12)" fill="#118bee"/><path d="M170.54,319.87a23,23,0,0,1,6,.69,6.24,6.24,0,0,1,4.28,3.9c.75,2.68-1.21,5.51-3.72,6.7s-5.4,1.15-8.18,1.09l-22.4-.53a27.83,27.83,0,0,1-7.73-.91,9.36,9.36,0,0,1-5.88-4.78c-1.62-3.62.33-8.14,3.67-10.29,5.07-3.25,10.47-1.62,15.57.3A59.88,59.88,0,0,0,170.54,319.87Z" transform="translate(-18.92 -7.12)" fill="#118bee"/><path d="M342.35,326.78c4.45-11.44,13.72-27.45,18.17-38.89,2.08-5.34,4.44-11,9.29-14.1,3.27-2.08,7.24-2.64,11.09-3.16L400.05,268c5.14-.69,9.27,1,13.45,4.07s7.3,7.38,10,11.82a104.5,104.5,0,0,1,13.14,33.31c.53,2.6.84,5.69-1.05,7.56-1.37,1.37-3.49,1.62-5.43,1.72C402.45,328.05,370.15,325.33,342.35,326.78Z" transform="translate(-18.92 -7.12)" fill="#118bee"/><path d="M342.35,326.78c4.45-11.44,13.72-27.45,18.17-38.89,2.08-5.34,4.44-11,9.29-14.1,3.27-2.08,7.24-2.64,11.09-3.16L400.05,268c5.14-.69,9.27,1,13.45,4.07s7.3,7.38,10,11.82a104.5,104.5,0,0,1,13.14,33.31c.53,2.6.84,5.69-1.05,7.56-1.37,1.37-3.49,1.62-5.43,1.72C402.45,328.05,370.15,325.33,342.35,326.78Z" transform="translate(-18.92 -7.12)" fill="url(#linear-gradient-7)"/><path d="M394.61,274.13a8.6,8.6,0,0,1-9.2,3.08,3.59,3.59,0,0,1-1.4-.72,4.06,4.06,0,0,1-.87-1.36c-1.51-3.5-1.58-7.42-1.64-11.23a10.47,10.47,0,0,1,.62-4.56c1.87-4.08,10.7-8.18,13.54-3.2C398.05,260.34,397.41,270.3,394.61,274.13Z" transform="translate(-18.92 -7.12)" fill="url(#linear-gradient-8)"/><path d="M110,213.13a4.15,4.15,0,0,0-5.12.65A7.21,7.21,0,0,0,103,218.9a6,6,0,0,0,.69,3.17,3.09,3.09,0,0,0,2.69,1.59,3.61,3.61,0,0,0,2.18-1.1,6.78,6.78,0,0,0-.39-9.69" transform="translate(-18.92 -7.12)" fill="#fff"/><path d="M126.4,201.1c-1.21,1.81-1,4.65.9,5.79a5.41,5.41,0,0,0,3,.62,13.39,13.39,0,0,0,3.6-.62,2.06,2.06,0,0,1,1.14-.16,2.4,2.4,0,0,1,.88.65,4.47,4.47,0,1,0,5.81-6.8c-.25-.2-.56-.44-.52-.76a.91.91,0,0,1,.22-.45,4.06,4.06,0,0,0-1-5.48c-3.6-2.5-4.32,1.05-5.88,3C132.53,199.44,128.5,198,126.4,201.1Z" transform="translate(-18.92 -7.12)" fill="#fff"/><path d="M170.15,182.71c1.47-.1,3.09-.5,3.86-1.75a4.71,4.71,0,0,0,.55-2.25,19.66,19.66,0,0,0-.16-3.76c-.59-4.2-6.53-6.24-8.71-2.16S164.5,183.11,170.15,182.71Z" transform="translate(-18.92 -7.12)" fill="#fff"/><path d="M207.16,199.36c-.36-.28-.83.19-1,.6a8.62,8.62,0,0,0,.52,7.72,2,2,0,0,0,.61.69,1.63,1.63,0,0,0,.84.2,3.47,3.47,0,0,0,3.14-2.73,5.44,5.44,0,0,0-1-4.24,6.63,6.63,0,0,0-3.36-2.59" transform="translate(-18.92 -7.12)" fill="#fff"/><path d="M286.6,211.49a2.19,2.19,0,0,0,2.13-2.11c.78-4.42-4.6-12-9.25-7.74S282,212.19,286.6,211.49Z" transform="translate(-18.92 -7.12)" fill="#fff"/><path d="M331.45,174.73a4.46,4.46,0,0,0-1.13-5.68,3.18,3.18,0,0,0-3.68-.21c-1.22.91-1.3,2.67-1.27,4.19-1.16-.56-2.62.56-2.75,1.84a4,4,0,0,0,1.69,3.31,5.21,5.21,0,0,0,3.9,1.28,3.31,3.31,0,0,0,2.88-2.65c.12-.95-.26-1.93-.07-2.87" transform="translate(-18.92 -7.12)" fill="#fff"/><path d="M347.93,191.5a5.6,5.6,0,0,0-3.71-.42,2.29,2.29,0,0,0-1.28.68,2.57,2.57,0,0,0-.44,1.66,10.35,10.35,0,0,0,.33,2.6,2.79,2.79,0,0,0,.81,1.53c.93.77,2.32.3,3.42-.2.85-.39,1.81-.9,2-1.82a2.77,2.77,0,0,0-.3-1.68,16.29,16.29,0,0,0-1.92-3.37" transform="translate(-18.92 -7.12)" fill="#fff"/><path d="M373.25,195a3.62,3.62,0,0,0,.31,4.49,2.27,2.27,0,0,0,2,.76,2.44,2.44,0,0,0,1.68-2,4.7,4.7,0,0,0-3.44-5.32" transform="translate(-18.92 -7.12)" fill="#fff"/><path d="M215,40.71a28.13,28.13,0,0,0-9.19,11.51A8.17,8.17,0,0,1,204,55c-1.81,1.58-4.54,1.07-6.92.77A28.62,28.62,0,0,0,165,87.53c-8.45.31-14.87,8.3-16.93,16.5a31.86,31.86,0,0,0,4.53,25.81,28.17,28.17,0,0,0,23,11.95c-.57,6.37,2.32,12.51,5.56,18,2.19,3.72,4.63,7.39,8,10.12s7.75,4.44,12,3.69c.64,9.53,9.42,17.24,18.87,18.57s19.06-2.74,26.31-8.95c3.91,3.76,10.05,4.44,15.26,2.93s9.66-4.9,13.72-8.49c7.6,2.18,15.5-1.55,22.53-5.17,4.47-2.31,9.15-4.8,11.82-9.06s2.89-9.54,1.78-14.36-3.47-9.26-5.8-13.63c4.05-2.36,8.22-4.83,10.94-8.65s3.57-9.39.72-13.1c-.73-.95-1.68-1.8-1.93-3-.29-1.33.44-2.64,1-3.87,2.76-6,1.94-13.19-.89-19.15s-7.46-10.87-12.36-15.29c-3.68-3.31-7.62-6.45-12.21-8.28s-10-2.2-14.4,0c-1.23-3.85-2.54-7.84-5.31-10.78s-7.45-4.52-11-2.51c1.24-.71-6.95-8.76-7.78-9.35a26.47,26.47,0,0,0-12-4.63C233.16,36,221.2,36.46,215,40.71Z" transform="translate(-18.92 -7.12)" fill="#fff"/><path d="M269.17,286.25c-4.9,5.26-7.74,12.07-10.49,18.71l-7.82,19a3.4,3.4,0,0,0-.27,2.9,3.34,3.34,0,0,0,2.48,1.25,119.32,119.32,0,0,0,12.08,1.2q30.53,1.91,61.12,1.4c2.44,0,5-.12,7.16-1.22,5.62-2.85,6.07-10.66,5.07-16.88a89.22,89.22,0,0,0-6.06-21,23.89,23.89,0,0,0-4.36-7.3c-4.66-4.88-12.07-5.66-18.81-5.85C296.36,278.06,278.83,275.86,269.17,286.25Z" transform="translate(-18.92 -7.12)" fill="#118bee"/><path d="M254.2,281.9a3.77,3.77,0,0,0-1.31-1.91,3.64,3.64,0,0,0-1.76-.4,33.81,33.81,0,0,0-5.32.19,5.09,5.09,0,0,0-3.09,1.17,4.93,4.93,0,0,0-1.12,2.68c-1.43,7.75.21,15.68.85,23.53.43,5.35.48,11,3.37,15.56a14.23,14.23,0,0,0,12,6.45c2,0,4.3-.74,5.07-2.59a6.45,6.45,0,0,0,.25-2.9C262.21,309.59,260.18,294.86,254.2,281.9Z" transform="translate(-18.92 -7.12)" fill="#118bee"/><path d="M253.19,275c.95-2.05,2.23-3.92,3.36-5.88a3.82,3.82,0,0,0,.61-1.61,1.42,1.42,0,0,0-.77-1.44c-1.13-.43-2,1.13-3.21,1.37s-2-.69-2.78-1.48a36.81,36.81,0,0,0-11.64-7.84,1.86,1.86,0,0,0-1.48-.2c-.48.2-.61,1-.12,1.18a2.15,2.15,0,0,1-1.32-.34c-.43-.18-1.05-.19-1.24.23s.37,1,.23,1.56a4.15,4.15,0,0,1-1.54-.23c-.51-.1-1.18.07-1.28.59a1.66,1.66,0,0,0,.06.58,13.29,13.29,0,0,1,0,2.36c0,2.09,1.27,4,2.51,5.65,2.64,3.59,5.54,7,7.59,11a15.28,15.28,0,0,0,2.12,3.49c1.24,1.31,5.82,3.2,7,.9.57-1.08.1-3.45.3-4.72A19.91,19.91,0,0,1,253.19,275Z" transform="translate(-18.92 -7.12)" fill="url(#linear-gradient-9)"/><path d="M315.23,306.77c.4,1.94.46,4.16-.8,5.7s-3.6,1.91-5.66,2c-10,.52-20.26-1.2-30,1.08a6.11,6.11,0,0,0-3.67,1.89c-1,1.35-.87,3.21-.67,4.89l.84,7.18-9.77-1.78a1.9,1.9,0,0,1-1.82-2.06,48.53,48.53,0,0,1-1-11.38A16,16,0,0,1,266.89,304c2.35-2.32,5.54-3.55,8.71-4.46,7.55-2.15,15.44-2.79,23.26-3.42,3.39-.27,9-1,11.93,1.28C313.17,299.24,314.63,303.89,315.23,306.77Z" transform="translate(-18.92 -7.12)" fill="url(#linear-gradient-10)"/><path d="M407.71,302.61c-1,1.59-3.29,1.73-5.2,1.73a119.92,119.92,0,0,0-24.91,2.73,28,28,0,0,0-8.62,3,11.3,11.3,0,0,0-5.48,7c-.63,3,.66,6.46,3.4,7.81a11.79,11.79,0,0,0,5.35.78l54.45-.59a9.27,9.27,0,0,0,3.67-.53c2.7-1.19,3.86-4.57,3.7-7.52-1.86-35.33-19.6-45.39-22.55-44.94-2.36.35-2.75,18.58-3.41,21.19C407.36,296.23,409.59,299.72,407.71,302.61Z" transform="translate(-18.92 -7.12)" fill="#118bee"/><path d="M360.65,317.72a17.1,17.1,0,0,0-6.64.36,25,25,0,0,0-11.64,6.38,3.19,3.19,0,0,0-.87,1.19,2.32,2.32,0,0,0,1.44,2.64,6.71,6.71,0,0,0,3.25.3l10.23-.72a12.9,12.9,0,0,0,4.42-.84c1.69-.75,3.13-2.24,5-2.32a5.15,5.15,0,0,0,1.62-.11c1.63-.61,1.21-3.23.28-4.2C366.32,318.92,362.58,318,360.65,317.72Z" transform="translate(-18.92 -7.12)" fill="url(#linear-gradient-11)"/><path d="M95.32,251.09c0,9.07-3.21,19.24-11.42,23.1-5.9,2.77-13.17,1.46-18.51-2.26s-8.93-9.54-11.13-15.67c-2.53-7.06-3.38-14.89-1.25-22.08s7.53-13.59,14.67-15.87C87.57,212,95.34,236.1,95.32,251.09Z" transform="translate(-18.92 -7.12)" fill="url(#linear-gradient-12)"/><path d="M66.14,231.43a9.27,9.27,0,0,0,2-.76c1.16-.73,1.76-2.1,2.82-3a9.52,9.52,0,0,1,3.89-1.44A29.78,29.78,0,0,0,85,221.7c3-2.09,5.8-5.6,4.62-9a7.15,7.15,0,0,0-2.31-3.06A12.73,12.73,0,0,0,76,207.22c-5.32,1.5-9,6.24-13.45,9.48-5.26,3.81-12.34,6.18-14.71,12.23-1.28,3.28-.86,7.08-2.36,10.27-.72,1.53-1.91,3.1-1.44,4.73.43,1.45,2.09,2.41,2.15,3.92a5.12,5.12,0,0,1-.59,2.06c-1.31,3.28-.62,7.1,1,10.23a35.14,35.14,0,0,0,6.65,8.21c3,3,6.86,6.31,11.09,5.54a1.69,1.69,0,0,0,.7-.26c.86-.65,0-2-.75-2.72a23.68,23.68,0,0,1-6.18-10,2.32,2.32,0,0,1-.11-1.42,1.63,1.63,0,0,1,1.94-.85,4.84,4.84,0,0,1,1.95,1.22,2.52,2.52,0,0,0,.37-3.13c-1.33-2.49-3.6-4-4.77-6.74a11.19,11.19,0,0,1-1.06-6.7C57.3,238,60.9,233.08,66.14,231.43Z" transform="translate(-18.92 -7.12)" fill="#3e3e54"/><path d="M93.54,265.62a10.73,10.73,0,0,0-7.37,2.26c-.94.67-1.92,1.73-1.57,2.84a2.52,2.52,0,0,0,2.46,1.4,9.38,9.38,0,0,1,3,.19,18.31,18.31,0,0,0-3.47,8.23c-.44,2.91,0,6.31,2.45,8a8.65,8.65,0,0,0,5.76,1.09,12.3,12.3,0,0,0,4.59-1.17,9.56,9.56,0,0,0,4.79-8.79c-.12-3.41-1.83-6.31-4.06-8.78C98.15,268.72,96.77,266,93.54,265.62Z" transform="translate(-18.92 -7.12)" fill="url(#linear-gradient-13)"/><path d="M282.65,251.55a25.54,25.54,0,0,0-2.51,6.92,13.82,13.82,0,0,0,4.17,11.94c2.33,2.21,5.53,3.84,6.54,6.89.92,2.79-.32,6,.87,8.72s4.44,3.84,7.24,3.25a11.25,11.25,0,0,0,6.68-5,45.84,45.84,0,0,0,3.65-7.76,82,82,0,0,1,5.13-10.22,55.06,55.06,0,0,0,3.85-7,25.19,25.19,0,0,0,1.74-9.05c.14-7.16-2.47-14.71-8.24-18.95a15.35,15.35,0,0,0-18.15.16c-2.67,2-3.58,4.67-5,7.63Q285.63,245.28,282.65,251.55Z" transform="translate(-18.92 -7.12)" fill="url(#linear-gradient-14)"/><path d="M295.18,215.08c-1-.93-2.36-2-3.5-1.28a2.51,2.51,0,0,0-.9,1.22,8.34,8.34,0,0,0-.29,5.55,5.1,5.1,0,0,0-3.6-.34c-1.81.77-2.09,3.28-1.51,5.16s1.7,3.64,1.71,5.6c0,1-.3,2-.32,3.06a2.71,2.71,0,0,0,1.32,2.59c1.23.55,2.55-.42,3.67-1.18,5.94-4,15-2.15,18.91,3.88s2.44,13.8.89,20.75c.39.6,1.13-.31,1.6-.85,1-1.15,3.16-.21,3.46,1.29a4.13,4.13,0,0,1-1.92,3.89c-1.24.9-2.72,1.41-4,2.23a1.47,1.47,0,0,0-.75.86,1.6,1.6,0,0,0,.19.95,26.32,26.32,0,0,0,1.4,2.75,3,3,0,0,0,1.79,1.63,2.84,2.84,0,0,0,1.67-.38c4.09-2,6.87-5.91,9.16-9.85s4.12-8.65,1.89-12.45c-.44-.75-1-1.41-1.43-2.17a13.78,13.78,0,0,1-1.1-4.6,32.56,32.56,0,0,0-10.08-18.89c-2.55-2.36-5.26-4.42-8.71-5C300.82,218.87,298.13,218,295.18,215.08Z" transform="translate(-18.92 -7.12)" fill="#b7a451"/><path d="M370.1,248.91c-.3,3.71.34,8,3.41,10.06,2.21,1.5,5.09,1.45,7.77,1.34,3.76-.15,7.65-.34,11-2,5.13-2.5,8.19-7.85,10.52-13.07a34.39,34.39,0,0,0,3.37-11.35c.3-4-.69-8.16-3.41-11.06a14.75,14.75,0,0,0-6.25-3.74C379.88,213.62,371.11,236,370.1,248.91Z" transform="translate(-18.92 -7.12)" fill="url(#linear-gradient-15)"/><path d="M381.1,213.49a8.58,8.58,0,0,1,1.1-3.83,6.23,6.23,0,0,1,3.38-2.41c4.18-1.32,8.61.65,12.54,2.58l10.2,5a12.79,12.79,0,0,1,8.19,8.21A12.76,12.76,0,0,1,417.7,227a10.82,10.82,0,0,1-1.29,5.3,8.35,8.35,0,0,1-2.7,3.64c1.05.48,1.35,1.85,1.22,3a9.51,9.51,0,0,1-2.68,5.35,28.65,28.65,0,0,1-4.75,3.81l-3.3,2.28c-.58.4-1.31.82-2,.53a1.43,1.43,0,0,1-.73-1.36,4.66,4.66,0,0,1,.43-1.57,32.51,32.51,0,0,0,2.24-13.62,6.08,6.08,0,0,0-.46-2.35,6.84,6.84,0,0,0-1.35-1.69l-4.76-4.77a20.15,20.15,0,0,0-4-3.38,10.38,10.38,0,0,0-9.27-.52c-.66.29-1.84,1.06-2.59.86-1-.27-.73-1.22-.79-2.2A39.37,39.37,0,0,1,381.1,213.49Z" transform="translate(-18.92 -7.12)" fill="#3e3e54"/><path d="M406.56,247.4a4.6,4.6,0,0,1-1,3.48,7.61,7.61,0,0,1-3.15,2.46,2.55,2.55,0,0,1-1.83.21,2.46,2.46,0,0,1-1.33-2.28,6.39,6.39,0,0,1,2.69-5.39C403.64,244.77,406.14,245.06,406.56,247.4Z" transform="translate(-18.92 -7.12)" fill="url(#linear-gradient-16)"/><path d="M369.74,241.93a14.15,14.15,0,0,1,2.95-.59,7.59,7.59,0,0,1,2,0,10.35,10.35,0,0,1,2.39.86c2,.92,4.17,2,5.14,4a19,19,0,0,0,.88,2,6.52,6.52,0,0,0,3.34,2.17c1.07.41,1.19,1.85,2.09,2.55,1.08.84,2.65.5,3.86-.11a10.69,10.69,0,0,0,3.53-2.8,8.7,8.7,0,0,1,2.19-2.29,2,2,0,0,1,2.76.59,2.65,2.65,0,0,1-.34,2.12,27.27,27.27,0,0,1-5.87,7.89,12.37,12.37,0,0,1-2.65,2,14.43,14.43,0,0,1-4.68,1.26,75.63,75.63,0,0,1-9.74.75,13.92,13.92,0,0,1-5.56-.77,5.51,5.51,0,0,1-1.5-.92,7.58,7.58,0,0,1-2-4.12C367.32,251.26,368,246.94,369.74,241.93Z" transform="translate(-18.92 -7.12)" fill="#3e3e54"/><path d="M380.1,253.07a3.08,3.08,0,0,1-.35,1.8c-.65,1-2.06,1.15-3.25,1a9.79,9.79,0,0,1-3.16-1,2.87,2.87,0,0,1-1-.79,3.22,3.22,0,0,1-.44-2,26.06,26.06,0,0,1,.2-2.93,7,7,0,0,1,.52-2.11c.46-1,1.22-1.74,2.3-1.3a8.26,8.26,0,0,1,2.59,1.74A8.64,8.64,0,0,1,380.1,253.07Z" transform="translate(-18.92 -7.12)" fill="url(#linear-gradient-17)"/><path d="M191.7,285.24a26,26,0,0,1,3.63-7.51l5.28-8.45a1.43,1.43,0,0,1,.66-.67,1.25,1.25,0,0,1,1,.24c2.46,1.53,3.06,4.87,2.76,7.75s-1.26,5.73-1,8.61a42.14,42.14,0,0,1,.7,4.71,8.23,8.23,0,0,1-3.09,6.07c-2.25,1.89-7.32,4.48-9.22,1.08C190.83,294.14,191,288.32,191.7,285.24Z" transform="translate(-18.92 -7.12)" fill="url(#linear-gradient-18)"/><path d="M197.29,294c-2.59.7-5.3,1.95-6.41,4.39a10.58,10.58,0,0,0-.69,3.8q-.57,10.16-.44,20.34a6.46,6.46,0,0,0,.92,3.94c1,1.29,2.81,1.61,4.45,1.66a21.86,21.86,0,0,0,9-1.65,3.92,3.92,0,0,0,2.19-1.66,4.27,4.27,0,0,0,.26-2.16c-.35-6.73-1.92-13.52-2-20.22C204.47,297.7,203.71,292.26,197.29,294Z" transform="translate(-18.92 -7.12)" fill="#118bee"/><path d="M179.06,324.09a2.16,2.16,0,0,0-1.12.3,2.13,2.13,0,0,0-.62,1.31c-.36,1.84-.54,4.07.91,5.25a5.4,5.4,0,0,0,2.45.91c2.12.4,4.25.77,6.37,1.13a3.63,3.63,0,0,0,2.07-.08,14.25,14.25,0,0,0,1.42-1,4.36,4.36,0,0,1,2.68-.3c2.3.23,4.6.55,6.88,1a6.44,6.44,0,0,0,2.35.14,2.11,2.11,0,0,0,1.71-1.44c.28-1.15-.8-2.16-1.8-2.81C195.24,323.79,187.26,323.53,179.06,324.09Z" transform="translate(-18.92 -7.12)" fill="url(#linear-gradient-19)"/><path d="M171.06,292.06c1.55,1.75,6.77,3.37,8.85,2.3,1.38-.71,1.5-4.54,2.12-6a19.17,19.17,0,0,0,1.09-3.55,11.48,11.48,0,0,0,.3-5.17,4.62,4.62,0,0,0-3.35-3.62c-1.64-.3-11.6-1.42-10.65-.05C173.35,281.68,167.35,287.89,171.06,292.06Z" transform="translate(-18.92 -7.12)" fill="url(#linear-gradient-20)"/><path d="M174.27,285.91a17.74,17.74,0,0,0,1.83,3.89,5,5,0,0,0,3.52,2.25,2.05,2.05,0,0,0,1-.15c.9-.42,1.14-1.56,1.27-2.54l.71-5.3a2.32,2.32,0,0,0-.06-1.2,2.13,2.13,0,0,0-.75-.8,25.43,25.43,0,0,0-2.36-1.57c-1.69-1-3.9-2.1-5.94-1.71A1.85,1.85,0,0,0,172,280c-.25.87.43,1.76.78,2.5C173.32,283.59,173.81,284.74,174.27,285.91Z" transform="translate(-18.92 -7.12)" fill="url(#linear-gradient-21)"/><path d="M192.69,254.48s4.81,19.45-.65,26.22-14.21,6.56-17.7,2.84-16.47-20-11.66-29.79S186.28,232.19,192.69,254.48Z" transform="translate(-18.92 -7.12)" fill="url(#linear-gradient-22)"/><path d="M172.65,249c-.37,2.26-.06,4.64-.86,6.78-1.4,3.72-5.76,5.66-7.2,9.36-.35.9-.51,1.87-.93,2.74a2.83,2.83,0,0,1-2.12,1.77,2.55,2.55,0,0,1-2.32-1.4,6.7,6.7,0,0,1-.69-2.76c-.62-6.4.12-13.21,3.69-18.55a16.47,16.47,0,0,1,12.37-7.38c3-.16,4,.47,1.9,2.69C174.61,244.23,173.11,246.17,172.65,249Z" transform="translate(-18.92 -7.12)" fill="#3e3e54"/><path d="M164,271.91a1.27,1.27,0,0,0-.66.22,1.24,1.24,0,0,0-.29.39,3.25,3.25,0,0,0-.52,2.06,3,3,0,0,0,2.41,2.12,6.8,6.8,0,0,0,3.69-.07.63.63,0,0,0,.31-.17.69.69,0,0,0,0-.68,10.74,10.74,0,0,0-1.87-2.93A3.22,3.22,0,0,0,164,271.91Z" transform="translate(-18.92 -7.12)" fill="url(#linear-gradient-23)"/><path d="M253.85,326.67c-.54.66-1,1.67-.42,2.26a1.81,1.81,0,0,0,1.43.32l17.94-1.06a2.53,2.53,0,0,0,.87-.16c.89-.4,1-1.62.89-2.6-.1-1.55-.2-3.09-.31-4.63s.24-2.19-1.38-2.41c-2.24-.31-5.06.42-7.2,1A23.12,23.12,0,0,0,253.85,326.67Z" transform="translate(-18.92 -7.12)" fill="url(#linear-gradient-24)"/><path d="M219.68,106.72c-6-9.2-6.78-22.52.62-30.67a24.28,24.28,0,0,1,13.09-7.11c8.7-1.82,18.66.73,24,7.82a22.73,22.73,0,0,1,4.2,15.14,34,34,0,0,1-5,15.09c-1.59,2.69-3.5,5.28-4.2,8.33-.45,2-.37,4-.75,6a13.47,13.47,0,0,1-11.72,10.55c-5,.43-12-2.86-13-8.24-.54-2.91,0-5.15-1.4-8.07C224,112.36,221.61,109.66,219.68,106.72Z" transform="translate(-18.92 -7.12)" fill="#118bee" opacity="0.43" style="isolation:isolate"/><path d="M230.17,125.24c1.13-5.52,0-11.2-.69-16.79a12.25,12.25,0,0,1,.24-5.56c.64-1.76,2.32-3.28,4.18-3.14,2.12.17,3.53,2.27,4.22,4.28a16.91,16.91,0,0,1,.75,7.7c-.19,1.37-.7,2.92-2,3.44a8.55,8.55,0,0,1,1.65-11.4,3.6,3.6,0,0,1,2.47-.88c1.46.16,2.4,1.66,2.75,3.09a9.25,9.25,0,0,1-.15,5,2.36,2.36,0,0,1-.74,1.23,1,1,0,0,1-1.31-.1,1.44,1.44,0,0,1-.18-.77c-.16-3.12,0-6.59,2.17-8.85a2.14,2.14,0,0,1,1.28-.76A2,2,0,0,1,246,102c2.05,1.2,2.72,3.92,2.35,6.26s-1.55,4.46-2.42,6.66a26.74,26.74,0,0,0-1.83,11.19" transform="translate(-18.92 -7.12)" fill="none" stroke="#fff" stroke-miterlimit="10" stroke-width="0.78"/><path d="M224.63,128.58c-.23.37-.55.67-.77,1-.73,1.21-.31,2.76.14,4.11.88,2.65,1.87,5.47,4.1,7.16a11.57,11.57,0,0,0,5.28,1.91,32.58,32.58,0,0,0,11.1-.2,13.42,13.42,0,0,0,4.74-1.67,6.29,6.29,0,0,0,2.92-3.95,9.44,9.44,0,0,1,.28-1.5c.15-.43.42-.81.61-1.22a3.79,3.79,0,0,0,0-3,9.43,9.43,0,0,1-.8-1.78,5.11,5.11,0,0,1,.13-1.82,9.85,9.85,0,0,0-1.37-6.63,21.68,21.68,0,0,1-10.45,4.79A15.83,15.83,0,0,1,230,123.7c-1.33-.85-2.69-2.37-3.9-.53C225,124.79,225.61,127,224.63,128.58Z" transform="translate(-18.92 -7.12)" fill="#3e3e54"/></svg>