<svg id="Layer_1" data-name="Layer 1" xmlns="http://www.w3.org/2000/svg" xmlns:xlink="http://www.w3.org/1999/xlink" viewBox="0 0 444.15 407.31"><defs><linearGradient id="linear-gradient" x1="207.58" y1="316.27" x2="209.76" y2="384.73" gradientUnits="userSpaceOnUse"><stop offset="0" stop-color="#010101" stop-opacity="0"/><stop offset="0.95" stop-color="#010101"/></linearGradient><linearGradient id="linear-gradient-2" x1="141.4" y1="277.42" x2="160.86" y2="335.81" xlink:href="#linear-gradient"/><linearGradient id="linear-gradient-3" x1="141.4" y1="287.26" x2="160.86" y2="345.65" xlink:href="#linear-gradient"/><linearGradient id="linear-gradient-4" x1="141.4" y1="297.1" x2="160.86" y2="355.49" xlink:href="#linear-gradient"/><linearGradient id="linear-gradient-5" x1="141.4" y1="306.94" x2="160.86" y2="365.33" xlink:href="#linear-gradient"/><linearGradient id="linear-gradient-6" x1="154.08" y1="277.42" x2="173.55" y2="335.81" xlink:href="#linear-gradient"/><linearGradient id="linear-gradient-7" x1="154.08" y1="287.26" x2="173.55" y2="345.65" xlink:href="#linear-gradient"/><linearGradient id="linear-gradient-8" x1="154.08" y1="297.1" x2="173.55" y2="355.49" xlink:href="#linear-gradient"/><linearGradient id="linear-gradient-9" x1="154.08" y1="306.94" x2="173.55" y2="365.33" xlink:href="#linear-gradient"/><linearGradient id="linear-gradient-10" x1="166.77" y1="277.42" x2="186.23" y2="335.81" xlink:href="#linear-gradient"/><linearGradient id="linear-gradient-11" x1="166.77" y1="287.26" x2="186.23" y2="345.65" xlink:href="#linear-gradient"/><linearGradient id="linear-gradient-12" x1="166.77" y1="297.1" x2="186.23" y2="355.49" xlink:href="#linear-gradient"/><linearGradient id="linear-gradient-13" x1="166.77" y1="306.94" x2="186.23" y2="365.33" xlink:href="#linear-gradient"/><linearGradient id="linear-gradient-14" x1="179.45" y1="277.42" x2="198.92" y2="335.81" xlink:href="#linear-gradient"/><linearGradient id="linear-gradient-15" x1="179.45" y1="287.26" x2="198.92" y2="345.65" xlink:href="#linear-gradient"/><linearGradient id="linear-gradient-16" x1="179.45" y1="297.1" x2="198.92" y2="355.49" xlink:href="#linear-gradient"/><linearGradient id="linear-gradient-17" x1="192.14" y1="277.42" x2="211.6" y2="335.81" xlink:href="#linear-gradient"/><linearGradient id="linear-gradient-18" x1="192.14" y1="287.26" x2="211.6" y2="345.65" xlink:href="#linear-gradient"/><linearGradient id="linear-gradient-19" x1="192.14" y1="297.1" x2="211.6" y2="355.49" xlink:href="#linear-gradient"/><linearGradient id="linear-gradient-20" x1="204.82" y1="277.42" x2="224.29" y2="335.81" xlink:href="#linear-gradient"/><linearGradient id="linear-gradient-21" x1="204.82" y1="287.26" x2="224.29" y2="345.65" xlink:href="#linear-gradient"/><linearGradient id="linear-gradient-22" x1="204.82" y1="297.1" x2="224.29" y2="355.49" xlink:href="#linear-gradient"/><linearGradient id="linear-gradient-23" x1="217.51" y1="277.42" x2="236.97" y2="335.81" xlink:href="#linear-gradient"/><linearGradient id="linear-gradient-24" x1="217.51" y1="287.26" x2="236.97" y2="345.65" xlink:href="#linear-gradient"/><linearGradient id="linear-gradient-25" x1="217.51" y1="297.1" x2="236.97" y2="355.49" xlink:href="#linear-gradient"/><linearGradient id="linear-gradient-26" x1="230.19" y1="277.42" x2="249.66" y2="335.81" xlink:href="#linear-gradient"/><linearGradient id="linear-gradient-27" x1="230.19" y1="287.26" x2="249.66" y2="345.65" xlink:href="#linear-gradient"/><linearGradient id="linear-gradient-28" x1="230.19" y1="297.1" x2="249.66" y2="355.49" xlink:href="#linear-gradient"/><linearGradient id="linear-gradient-29" x1="242.88" y1="277.42" x2="262.34" y2="335.81" xlink:href="#linear-gradient"/><linearGradient id="linear-gradient-30" x1="242.88" y1="287.26" x2="262.34" y2="345.65" xlink:href="#linear-gradient"/><linearGradient id="linear-gradient-31" x1="242.88" y1="297.1" x2="262.34" y2="355.49" xlink:href="#linear-gradient"/><linearGradient id="linear-gradient-32" x1="242.88" y1="306.94" x2="262.34" y2="365.33" xlink:href="#linear-gradient"/><linearGradient id="linear-gradient-33" x1="255.56" y1="277.42" x2="275.02" y2="335.81" xlink:href="#linear-gradient"/><linearGradient id="linear-gradient-34" x1="255.56" y1="287.26" x2="275.02" y2="345.65" xlink:href="#linear-gradient"/><linearGradient id="linear-gradient-35" x1="255.56" y1="297.1" x2="275.02" y2="355.49" xlink:href="#linear-gradient"/><linearGradient id="linear-gradient-36" x1="255.56" y1="306.94" x2="275.02" y2="365.33" xlink:href="#linear-gradient"/><linearGradient id="linear-gradient-37" x1="268.24" y1="277.42" x2="287.71" y2="335.81" xlink:href="#linear-gradient"/><linearGradient id="linear-gradient-38" x1="268.24" y1="287.26" x2="287.71" y2="345.65" xlink:href="#linear-gradient"/><linearGradient id="linear-gradient-39" x1="268.24" y1="297.1" x2="287.71" y2="355.49" xlink:href="#linear-gradient"/><linearGradient id="linear-gradient-40" x1="268.24" y1="306.94" x2="287.71" y2="365.33" xlink:href="#linear-gradient"/><linearGradient id="linear-gradient-41" x1="201.17" y1="299.29" x2="200.66" y2="387.48" xlink:href="#linear-gradient"/><linearGradient id="linear-gradient-42" x1="241.75" y1="324.01" x2="280.1" y2="324.01" gradientUnits="userSpaceOnUse"><stop offset="0" stop-color="#e5c6d6"/><stop offset="0.42" stop-color="#ead4d0"/><stop offset="1" stop-color="#f0e9cb"/></linearGradient><linearGradient id="linear-gradient-43" x1="297.63" y1="345.78" x2="344.09" y2="345.78" xlink:href="#linear-gradient-42"/><linearGradient id="linear-gradient-44" x1="229.76" y1="451.83" x2="225.94" y2="247.42" gradientTransform="matrix(1, 0, 0, -1, -88.24, 449.13)" gradientUnits="userSpaceOnUse"><stop offset="0" stop-color="#fff" stop-opacity="0"/><stop offset="0.99" stop-color="#fff"/></linearGradient><linearGradient id="linear-gradient-45" x1="219.63" y1="441.06" x2="216.1" y2="252.08" xlink:href="#linear-gradient-44"/><linearGradient id="linear-gradient-46" x1="322.22" y1="441.69" x2="318.61" y2="249.34" xlink:href="#linear-gradient-44"/><linearGradient id="linear-gradient-47" x1="250.84" y1="430.96" x2="247.52" y2="254.69" xlink:href="#linear-gradient-44"/><linearGradient id="linear-gradient-48" x1="274.55" y1="421.86" x2="271.44" y2="256.61" xlink:href="#linear-gradient-44"/><linearGradient id="linear-gradient-49" x1="336.5" y1="420.37" x2="333.43" y2="255.67" xlink:href="#linear-gradient-44"/><linearGradient id="linear-gradient-50" x1="268.6" y1="412.51" x2="265.72" y2="258.58" xlink:href="#linear-gradient-44"/><linearGradient id="linear-gradient-51" x1="344.84" y1="414.34" x2="341.9" y2="256.9" xlink:href="#linear-gradient-44"/><linearGradient id="linear-gradient-52" x1="242.37" y1="365.56" x2="239.72" y2="223.82" xlink:href="#linear-gradient-44"/><linearGradient id="linear-gradient-53" x1="233.6" y1="358.48" x2="231.15" y2="227.25" xlink:href="#linear-gradient-44"/><linearGradient id="linear-gradient-54" x1="317.74" y1="363.14" x2="315.12" y2="223.77" xlink:href="#linear-gradient-44"/><linearGradient id="linear-gradient-55" x1="258.93" y1="353.78" x2="256.58" y2="228.63" xlink:href="#linear-gradient-44"/><linearGradient id="linear-gradient-56" x1="278.41" y1="349.28" x2="276.16" y2="229.81" xlink:href="#linear-gradient-44"/><linearGradient id="linear-gradient-57" x1="329.83" y1="347.34" x2="327.62" y2="229.32" xlink:href="#linear-gradient-44"/><linearGradient id="linear-gradient-58" x1="273.3" y1="343.25" x2="271.21" y2="231.37" xlink:href="#linear-gradient-44"/><linearGradient id="linear-gradient-59" x1="337.03" y1="346.81" x2="334.84" y2="229.82" xlink:href="#linear-gradient-44"/><linearGradient id="linear-gradient-60" x1="251.09" y1="310.87" x2="249.12" y2="205.63" xlink:href="#linear-gradient-44"/><linearGradient id="linear-gradient-61" x1="243.38" y1="305.62" x2="241.56" y2="208.4" xlink:href="#linear-gradient-44"/><linearGradient id="linear-gradient-62" x1="314.69" y1="312.02" x2="312.67" y2="204.73" xlink:href="#linear-gradient-44"/><linearGradient id="linear-gradient-63" x1="264.7" y1="303.52" x2="262.92" y2="209.18" xlink:href="#linear-gradient-44"/><linearGradient id="linear-gradient-64" x1="281.21" y1="301.33" x2="279.49" y2="209.99" xlink:href="#linear-gradient-44"/><linearGradient id="linear-gradient-65" x1="325.16" y1="299.24" x2="323.49" y2="209.75" xlink:href="#linear-gradient-44"/><linearGradient id="linear-gradient-66" x1="276.73" y1="297.05" x2="275.13" y2="211.31" xlink:href="#linear-gradient-44"/><linearGradient id="linear-gradient-67" x1="331.48" y1="301.34" x2="329.77" y2="209.9" xlink:href="#linear-gradient-44"/></defs><title>code 1</title><path d="M455.79,337.36c-13.21,5.07-27.17,8.17-40.12,13.86C394.53,360.56,377,376.43,357,388a146,146,0,0,1-27.21,12.26,152.77,152.77,0,0,1-28.75,6.56,188,188,0,0,1-39.13.95,253.36,253.36,0,0,1-37.31-5.69,386.22,386.22,0,0,1-54.31-16.82c-54.82-21.12-90.61-130.58-66.72-182.33,10.52-22.82,31.1-39.19,45.93-59.47C177,105.82,185.27,54.13,221.36,24.6,244.74,5.48,276.57-.84,306.66,1.52s58.94,12.7,87,23.86c13.54,5.37,27.26,11.12,38.21,20.76,19.3,16.94,27.11,43,39.31,65.61,19.95,37,53.69,68.07,60.19,109.52C539.06,270.61,502.38,319.43,455.79,337.36Z" transform="translate(-88.24 -1.05)" fill="#118bee" opacity="0.24" style="isolation:isolate"/><rect x="134.26" y="277.56" width="145.95" height="56.37" fill="#118bee"/><rect x="134.26" y="277.56" width="145.95" height="56.37" fill="url(#linear-gradient)"/><rect x="134.26" y="274.06" width="145.95" height="56.37" fill="#118bee"/><rect x="139.98" y="283.43" width="9.62" height="8.31" fill="url(#linear-gradient-2)"/><rect x="139.98" y="293.27" width="9.62" height="8.31" fill="url(#linear-gradient-3)"/><rect x="139.98" y="303.11" width="9.62" height="8.31" fill="url(#linear-gradient-4)"/><rect x="139.98" y="312.96" width="9.62" height="8.31" fill="url(#linear-gradient-5)"/><rect x="152.66" y="283.43" width="9.62" height="8.31" fill="url(#linear-gradient-6)"/><rect x="152.66" y="293.27" width="9.62" height="8.31" fill="url(#linear-gradient-7)"/><rect x="152.66" y="303.11" width="9.62" height="8.31" fill="url(#linear-gradient-8)"/><rect x="152.66" y="312.96" width="9.62" height="8.31" fill="url(#linear-gradient-9)"/><rect x="165.35" y="283.43" width="9.62" height="8.31" fill="url(#linear-gradient-10)"/><rect x="165.35" y="293.27" width="9.62" height="8.31" fill="url(#linear-gradient-11)"/><rect x="165.35" y="303.11" width="9.62" height="8.31" fill="url(#linear-gradient-12)"/><rect x="165.35" y="312.96" width="9.62" height="8.31" fill="url(#linear-gradient-13)"/><rect x="178.03" y="283.43" width="9.62" height="8.31" fill="url(#linear-gradient-14)"/><rect x="178.03" y="293.27" width="9.62" height="8.31" fill="url(#linear-gradient-15)"/><rect x="178.03" y="303.11" width="9.62" height="8.31" fill="url(#linear-gradient-16)"/><rect x="190.72" y="283.43" width="9.62" height="8.31" fill="url(#linear-gradient-17)"/><rect x="190.72" y="293.27" width="9.62" height="8.31" fill="url(#linear-gradient-18)"/><rect x="190.72" y="303.11" width="9.62" height="8.31" fill="url(#linear-gradient-19)"/><rect x="203.4" y="283.43" width="9.62" height="8.31" fill="url(#linear-gradient-20)"/><rect x="203.4" y="293.27" width="9.62" height="8.31" fill="url(#linear-gradient-21)"/><rect x="203.4" y="303.11" width="9.62" height="8.31" fill="url(#linear-gradient-22)"/><rect x="216.09" y="283.43" width="9.62" height="8.31" fill="url(#linear-gradient-23)"/><rect x="216.09" y="293.27" width="9.62" height="8.31" fill="url(#linear-gradient-24)"/><rect x="216.09" y="303.11" width="9.62" height="8.31" fill="url(#linear-gradient-25)"/><rect x="228.77" y="283.43" width="9.62" height="8.31" fill="url(#linear-gradient-26)"/><rect x="228.77" y="293.27" width="9.62" height="8.31" fill="url(#linear-gradient-27)"/><rect x="228.77" y="303.11" width="9.62" height="8.31" fill="url(#linear-gradient-28)"/><rect x="241.45" y="283.43" width="9.62" height="8.31" fill="url(#linear-gradient-29)"/><rect x="241.45" y="293.27" width="9.62" height="8.31" fill="url(#linear-gradient-30)"/><rect x="241.45" y="303.11" width="9.62" height="8.31" fill="url(#linear-gradient-31)"/><rect x="241.45" y="312.96" width="9.62" height="8.31" fill="url(#linear-gradient-32)"/><rect x="254.14" y="283.43" width="9.62" height="8.31" fill="url(#linear-gradient-33)"/><rect x="254.14" y="293.27" width="9.62" height="8.31" fill="url(#linear-gradient-34)"/><rect x="254.14" y="303.11" width="9.62" height="8.31" fill="url(#linear-gradient-35)"/><rect x="254.14" y="312.96" width="9.62" height="8.31" fill="url(#linear-gradient-36)"/><rect x="266.82" y="283.43" width="9.62" height="8.31" fill="url(#linear-gradient-37)"/><rect x="266.82" y="293.27" width="9.62" height="8.31" fill="url(#linear-gradient-38)"/><rect x="266.82" y="303.11" width="9.62" height="8.31" fill="url(#linear-gradient-39)"/><rect x="266.82" y="312.96" width="9.62" height="8.31" fill="url(#linear-gradient-40)"/><rect x="163.45" y="313.5" width="75.22" height="8.15" fill="url(#linear-gradient-41)"/><path d="M243.4,314c.26-1.11,1-2.5,2.12-2.14.59.19.88.84,1.1,1.42.61,1.59,3,3.77,3.58,5.37.11-4,.26-14.12,2.66-19.91a1.49,1.49,0,0,1,2.85.37c.93,6.58,1.54,17.23,1.92,15.05.49-2.75,2-24.82,6.13-22.3,1.3,3.92.38,19.09-.11,23.19,1.1-5.43,3.17-26.91,7.33-24.62,2.63,6.86-2.82,24.41-.32,31.32.46,1.27,1.45,2.63,2.81,2.53s2.07-1.54,2.15-2.83-.28-2.58-.18-3.87a2,2,0,0,1,1-1.73c1.2-.52,2.22,1,2.56,2.29a33.53,33.53,0,0,1-.3,18.42c-1.9,6.25-5.59,11.78-9.22,17.21a7.46,7.46,0,0,1-1.82,2.09,4.77,4.77,0,0,1-1.25.59,27.56,27.56,0,0,1-9.69,1.38c-14.17-.78-12.88-9.91-14-17.72A68.69,68.69,0,0,1,243.4,314Z" transform="translate(-88.24 -1.05)" fill="url(#linear-gradient-42)"/><path d="M243.59,358.58a6,6,0,0,1,2.9-3,6.91,6.91,0,0,1,2.36-.32,95.94,95.94,0,0,1,19.65,1.64,2.58,2.58,0,0,1,1.65.77,2.38,2.38,0,0,1,.37,1.18,21.35,21.35,0,0,1-1,9.58,2,2,0,0,1-.76,1.16,2.14,2.14,0,0,1-1.33.12,173.09,173.09,0,0,0-20.1-1.1C240.57,368.58,240.66,363.94,243.59,358.58Z" transform="translate(-88.24 -1.05)" fill="#fff"/><path d="M268.84,407.75A263.67,263.67,0,0,1,230,401.82a8.58,8.58,0,0,1-.25-3.95,83,83,0,0,1,10-28.18,5,5,0,0,1,2-2.21,4.72,4.72,0,0,1,2.18-.37A123.09,123.09,0,0,1,268.47,369a4.56,4.56,0,0,1,3.16,1.49,4.47,4.47,0,0,1,.59,2.48A129.26,129.26,0,0,1,268.84,407.75Z" transform="translate(-88.24 -1.05)" fill="#118bee"/><path d="M298.2,354.77c-.54-1-.95-2.41,0-3a2.07,2.07,0,0,1,1.53-.17,12.53,12.53,0,0,1,5.18,2.11c2.39,1.67,5,4.34,7.68,3.14,2.32-1.05,2.52-4.21,2.37-6.76q-.76-12.8-1.54-25.61c0-.85,0-1.89.74-2.3,1.13-.61,2.23.84,2.7,2l6.12,15.5c1.17-3.73-.19-16.54.38-22.23a1.66,1.66,0,0,1,3.18-.49c1.85,4.45,3.86,16,4.21,18.74,1,8.16,1.51,1,1.81-.37.72-3.4-.22-15,1.83-15.89,3,.22,4,4.12,4.07,7.14s-1.51,14.72,1.43,15.42c1.3-3.26,1.2-9.19,2.95-9.41,2.74,1.26.32,13.73-.55,16.62-2.6,8.66-.93,7.52-3.52,16.17a15.93,15.93,0,0,1-2.8,6,12.55,12.55,0,0,1-6.25,3.45C315.28,378.85,304.45,366.09,298.2,354.77Z" transform="translate(-88.24 -1.05)" fill="url(#linear-gradient-43)"/><path d="M315.59,386.58a2.66,2.66,0,0,0,.89,2,2.69,2.69,0,0,0,1.12.32,45.74,45.74,0,0,0,17.58-1.31,3.48,3.48,0,0,0,1.65-.79,3.2,3.2,0,0,0,.76-1.83c.56-3.87-1.16-7.66-2.84-11.19a1.41,1.41,0,0,0-.48-.64,1.36,1.36,0,0,0-.87-.05q-4.2.69-8.45,1c-2.06.14-5.44-.52-7.35.27C313.86,375.91,315.22,383.19,315.59,386.58Z" transform="translate(-88.24 -1.05)" fill="#fff"/><path d="M341.89,399.19a160.16,160.16,0,0,1-30,6.84c.13-4,.25-8.14.59-12.15.28-3.42,3.67-10.16,7.83-10.16,4.17-1.8,8.86-1.93,13.39-2.05,1.59,0,3.36,0,4.57,1.05s1.43,2.55,1.68,4C340.67,390.83,341.39,395,341.89,399.19Z" transform="translate(-88.24 -1.05)" fill="#118bee"/><polygon points="318.29 245.82 76.85 245.82 11.53 109.64 399.94 109.64 318.29 245.82" fill="#118bee" opacity="0.52"/><path d="M219.31,233H124.4c-5.52,0-11.43-3.08-13.21-6.89L94.87,191.17c-1.77-3.81,1.26-6.89,6.77-6.89h94.92c5.51,0,11.42,3.08,13.2,6.89l16.32,34.91C227.86,229.89,224.83,233,219.31,233Z" transform="translate(-88.24 -1.05)" fill="#fff" opacity="0.27"/><path d="M213.19,241.72H118.27c-5.51,0-11.43-3.08-13.2-6.89L88.75,199.92C87,196.11,90,193,95.52,193h94.91c5.52,0,11.43,3.09,13.21,6.9L220,234.83C221.73,238.64,218.7,241.72,213.19,241.72Z" transform="translate(-88.24 -1.05)" fill="#fff"/><path d="M388.8,202.25h94.92c5.52,0,11.43-3.09,13.21-6.89l16.31-34.92c1.78-3.8-1.25-6.89-6.76-6.89H411.56c-5.51,0-11.43,3.09-13.21,6.89L382,195.36C380.26,199.16,383.29,202.25,388.8,202.25Z" transform="translate(-88.24 -1.05)" fill="#fff" opacity="0.27"/><path d="M388.8,214.5h94.92c5.52,0,11.43-3.09,13.21-6.9l16.31-34.91c1.78-3.8-1.25-6.89-6.76-6.89H411.56c-5.51,0-11.43,3.09-13.21,6.89L382,207.6C380.26,211.41,383.29,214.5,388.8,214.5Z" transform="translate(-88.24 -1.05)" fill="#fff"/><polygon points="102.88 135.55 174.1 135.55 174.9 140.66 105.23 140.66 102.88 135.55" fill="url(#linear-gradient-44)"/><polygon points="107.34 145.24 149.01 145.24 150.23 149.66 109.37 149.66 107.34 145.24" fill="url(#linear-gradient-45)"/><polygon points="165.82 145.24 296.96 145.24 295.25 149.68 166.71 149.68 165.82 145.24" fill="url(#linear-gradient-46)"/><polygon points="132.26 154.18 187.28 154.18 187.74 158.47 133.82 158.47 132.26 154.18" fill="url(#linear-gradient-47)"/><polygon points="152.24 162.41 215.29 162.41 215.19 166.43 153.37 166.43 152.24 162.41" fill="url(#linear-gradient-48)"/><polygon points="219.4 162.41 272.24 162.41 270.92 166.86 219.21 166.86 219.4 162.41" fill="url(#linear-gradient-49)"/><polygon points="154.3 170.04 201.19 170.04 201.36 173.55 155.29 173.55 154.3 170.04" fill="url(#linear-gradient-50)"/><polygon points="205.69 170.04 302.45 170.04 300.66 173.91 205.79 173.91 205.69 170.04" fill="url(#linear-gradient-51)"/><polygon points="123.12 179.51 180.96 179.51 181.49 182.89 124.68 182.89 123.12 179.51" fill="url(#linear-gradient-52)"/><polygon points="126.09 185.95 160.19 185.95 161.01 188.92 127.45 188.92 126.09 185.95" fill="url(#linear-gradient-53)"/><polygon points="173.95 185.95 281.28 185.95 280.13 188.94 174.55 188.94 173.95 185.95" fill="url(#linear-gradient-54)"/><polygon points="146.01 191.97 191.37 191.97 191.69 194.9 147.07 194.9 146.01 191.97" fill="url(#linear-gradient-55)"/><polygon points="162.16 197.62 214.49 197.62 214.43 200.39 162.95 200.39 162.16 197.62" fill="url(#linear-gradient-56)"/><polygon points="217.9 197.62 261.76 197.62 260.85 200.69 217.77 200.69 217.9 197.62" fill="url(#linear-gradient-57)"/><polygon points="163.58 202.9 202.74 202.9 202.86 205.36 164.27 205.36 163.58 202.9" fill="url(#linear-gradient-58)"/><polygon points="206.5 202.9 287.31 202.9 286.06 205.61 206.57 205.61 206.5 202.9" fill="url(#linear-gradient-59)"/><polygon points="136.96 209.56 185.65 209.56 186.02 211.97 138.07 211.97 136.96 209.56" fill="url(#linear-gradient-60)"/><polygon points="139.07 214.15 167.94 214.15 168.53 216.28 140.06 216.28 139.07 214.15" fill="url(#linear-gradient-61)"/><polygon points="179.58 214.15 270.42 214.15 269.59 216.29 180.01 216.29 179.58 214.15" fill="url(#linear-gradient-62)"/><polygon points="155.66 218.48 194.24 218.48 194.47 220.61 156.43 220.61 155.66 218.48" fill="url(#linear-gradient-63)"/><polygon points="169.2 222.58 213.93 222.58 213.88 224.61 169.77 224.61 169.2 222.58" fill="url(#linear-gradient-64)"/><polygon points="216.84 222.58 254.33 222.58 253.66 224.83 216.75 224.83 216.84 222.58" fill="url(#linear-gradient-65)"/><polygon points="170.23 226.47 203.85 226.47 203.94 228.28 170.74 228.28 170.23 226.47" fill="url(#linear-gradient-66)"/><polygon points="207.08 226.47 276.46 226.47 275.54 228.47 207.13 228.47 207.08 226.47" fill="url(#linear-gradient-67)"/><g opacity="0.52"><polygon points="9.19 201.37 45.75 201.37 46.16 203.31 10.4 203.31 9.19 201.37" fill="#118bee"/><polygon points="11.48 205.05 32.87 205.05 33.5 206.73 12.53 206.73 11.48 205.05" fill="#118bee"/><polygon points="41.5 205.05 108.83 205.05 107.95 206.74 41.96 206.74 41.5 205.05" fill="#118bee"/><polygon points="24.27 208.45 52.52 208.45 52.76 210.08 25.07 210.08 24.27 208.45" fill="#118bee"/><polygon points="34.53 211.58 66.9 211.58 66.85 213.1 35.11 213.1 34.53 211.58" fill="#118bee"/><polygon points="69.01 211.58 96.14 211.58 95.46 213.27 68.91 213.27 69.01 211.58" fill="#118bee"/><polygon points="35.59 214.48 59.66 214.48 59.75 215.81 36.1 215.81 35.59 214.48" fill="#118bee"/><polygon points="61.97 214.48 111.64 214.48 110.73 215.95 62.02 215.95 61.97 214.48" fill="#118bee"/><polygon points="19.58 218.08 49.27 218.08 49.55 219.37 20.38 219.37 19.58 218.08" fill="#118bee"/><polygon points="21.1 220.53 38.61 220.53 39.03 221.66 21.81 221.66 21.1 220.53" fill="#118bee"/><polygon points="45.68 220.53 100.78 220.53 100.19 221.66 45.98 221.66 45.68 220.53" fill="#118bee"/><polygon points="31.33 222.81 54.62 222.81 54.78 223.93 31.88 223.93 31.33 222.81" fill="#118bee"/><polygon points="39.63 224.96 66.49 224.96 66.46 226.01 40.03 226.01 39.63 224.96" fill="#118bee"/><polygon points="68.24 224.96 90.76 224.96 90.29 226.13 68.17 226.13 68.24 224.96" fill="#118bee"/><polygon points="40.35 226.97 60.46 226.97 60.52 227.9 40.71 227.9 40.35 226.97" fill="#118bee"/><polygon points="62.39 226.97 103.88 226.97 103.23 228 62.42 228 62.39 226.97" fill="#118bee"/><polygon points="26.69 229.5 51.68 229.5 51.88 230.42 27.25 230.42 26.69 229.5" fill="#118bee"/><polygon points="27.77 231.25 42.59 231.25 42.89 232.06 28.28 232.06 27.77 231.25" fill="#118bee"/><polygon points="48.57 231.25 95.2 231.25 94.78 232.06 48.79 232.06 48.57 231.25" fill="#118bee"/><polygon points="36.29 232.89 56.09 232.89 56.21 233.7 36.68 233.7 36.29 232.89" fill="#118bee"/><polygon points="43.24 234.45 66.2 234.45 66.17 235.22 43.53 235.22 43.24 234.45" fill="#118bee"/><polygon points="67.7 234.45 86.94 234.45 86.6 235.31 67.65 235.31 67.7 234.45" fill="#118bee"/><polygon points="43.77 235.93 61.03 235.93 61.07 236.62 44.03 236.62 43.77 235.93" fill="#118bee"/><polygon points="62.69 235.93 98.3 235.93 97.83 236.69 62.71 236.69 62.69 235.93" fill="#118bee"/></g><g opacity="0.52"><polygon points="329.91 175.13 359.97 175.13 359.14 176.79 329.74 176.79 329.91 175.13" fill="#118bee"/><polygon points="329.58 178.29 347.17 178.29 346.67 179.73 329.43 179.73 329.58 178.29" fill="#118bee"/><polygon points="354.26 178.29 409.6 178.29 407.86 179.74 353.62 179.74 354.26 178.29" fill="#118bee"/><polygon points="338.05 181.2 361.27 181.2 360.48 182.6 337.73 182.6 338.05 181.2" fill="#118bee"/><polygon points="344.6 183.88 371.21 183.88 370.25 185.19 344.16 185.19 344.6 183.88" fill="#118bee"/><polygon points="372.94 183.88 395.24 183.88 393.67 185.33 371.85 185.33 372.94 183.88" fill="#118bee"/><polygon points="343.73 186.37 363.51 186.37 362.78 187.51 343.34 187.51 343.73 186.37" fill="#118bee"/><polygon points="365.41 186.37 406.25 186.37 404.61 187.63 364.57 187.63 365.41 186.37" fill="#118bee"/><polygon points="328.4 189.45 352.81 189.45 352.26 190.56 328.28 190.56 328.4 189.45" fill="#118bee"/><polygon points="328.18 191.55 342.57 191.55 342.24 192.52 328.08 192.52 328.18 191.55" fill="#118bee"/><polygon points="348.38 191.55 393.67 191.55 392.5 192.52 347.95 192.52 348.38 191.55" fill="#118bee"/><polygon points="335.21 193.51 354.35 193.51 353.82 194.47 334.99 194.47 335.21 193.51" fill="#118bee"/><polygon points="340.74 195.35 362.82 195.35 362.16 196.25 340.43 196.25 340.74 195.35" fill="#118bee"/><polygon points="364.26 195.35 382.77 195.35 381.68 196.35 363.5 196.35 364.26 195.35" fill="#118bee"/><polygon points="340.12 197.07 356.65 197.07 356.14 197.87 339.86 197.87 340.12 197.07" fill="#118bee"/><polygon points="358.24 197.07 392.34 197.07 391.2 197.96 357.65 197.96 358.24 197.07" fill="#118bee"/><polygon points="327.37 199.24 347.92 199.24 347.52 200.03 327.28 200.03 327.37 199.24" fill="#118bee"/><polygon points="327.21 200.74 339.39 200.74 339.15 201.43 327.14 201.43 327.21 200.74" fill="#118bee"/><polygon points="344.31 200.74 382.64 200.74 381.8 201.44 344 201.44 344.31 200.74" fill="#118bee"/><polygon points="333.22 202.15 349.5 202.15 349.11 202.84 333.06 202.84 333.22 202.15" fill="#118bee"/><polygon points="338 203.49 356.87 203.49 356.39 204.15 337.77 204.15 338 203.49" fill="#118bee"/><polygon points="358.1 203.49 373.92 203.49 373.13 204.22 357.55 204.22 358.1 203.49" fill="#118bee"/><polygon points="337.54 204.75 351.73 204.75 351.35 205.34 337.34 205.34 337.54 204.75" fill="#118bee"/><polygon points="353.09 204.75 382.37 204.75 381.53 205.41 352.66 205.41 353.09 204.75" fill="#118bee"/></g></svg>