<svg id="Layer_1" data-name="Layer 1" xmlns="http://www.w3.org/2000/svg" xmlns:xlink="http://www.w3.org/1999/xlink" viewBox="0 0 568.75 597.26"><defs><linearGradient id="linear-gradient" x1="553.74" y1="-190.33" x2="550.45" y2="478.18" gradientUnits="userSpaceOnUse"><stop offset="0"/><stop offset="0.97" stop-opacity="0.1"/></linearGradient><linearGradient id="linear-gradient-2" x1="476.06" y1="421.96" x2="719.78" y2="421.96" gradientUnits="userSpaceOnUse"><stop offset="0" stop-color="#ecc4d7"/><stop offset="0.42" stop-color="#efd4d1"/><stop offset="1" stop-color="#f2eac9"/></linearGradient><linearGradient id="linear-gradient-3" x1="431.96" y1="164.76" x2="485.43" y2="164.76" xlink:href="#linear-gradient-2"/><linearGradient id="linear-gradient-4" x1="427.04" y1="213.64" x2="486.91" y2="213.64" xlink:href="#linear-gradient-2"/><linearGradient id="linear-gradient-5" x1="429.73" y1="270.72" x2="474.91" y2="270.72" xlink:href="#linear-gradient-2"/><linearGradient id="linear-gradient-6" x1="433.7" y1="328.6" x2="480.26" y2="328.6" xlink:href="#linear-gradient-2"/><linearGradient id="linear-gradient-7" x1="393.86" y1="157.7" x2="441.19" y2="155.81" xlink:href="#linear-gradient"/><linearGradient id="linear-gradient-8" x1="395.9" y1="208.7" x2="443.23" y2="206.81" xlink:href="#linear-gradient"/><linearGradient id="linear-gradient-9" x1="398.19" y1="265.75" x2="445.51" y2="263.86" xlink:href="#linear-gradient"/><linearGradient id="linear-gradient-10" x1="400.51" y1="323.92" x2="447.84" y2="322.02" xlink:href="#linear-gradient"/><linearGradient id="linear-gradient-11" x1="287.15" y1="232.36" x2="335.77" y2="315.52" gradientUnits="userSpaceOnUse"><stop offset="0" stop-color="#183866"/><stop offset="1" stop-color="#1a7fc1"/></linearGradient><linearGradient id="linear-gradient-12" x1="307.56" y1="60.33" x2="318.35" y2="108.87" xlink:href="#linear-gradient-11"/><linearGradient id="linear-gradient-13" x1="300.63" y1="61.87" x2="311.42" y2="110.41" xlink:href="#linear-gradient-11"/><linearGradient id="linear-gradient-14" x1="293.7" y1="63.41" x2="304.49" y2="111.95" xlink:href="#linear-gradient-11"/><linearGradient id="linear-gradient-15" x1="97.37" y1="236.2" x2="97.72" y2="236.2" xlink:href="#linear-gradient-11"/></defs><title>29. Mobile</title><path d="M465.62.29C403.1,5.44,364.54,70.89,308.29,98.68c-25.27,12.49-53.74,17.07-79.66,28.14-44.09,18.82-81.29,62.37-77.31,110.14,5.16,61.92,71.94,100.37,92.93,158.84,5.79,16.14,7.91,33.42,13.88,49.48,14.9,40.09,55.28,69.34,98,71,34.31,1.33,67.05-13.42,101-18.62,41.56-6.38,83.93,1.69,126,.26s88-15.73,108.63-52.37c16.7-29.67,12.62-66.63,3.38-99.4S671.87,281.4,670,247.4c-2.16-39.59,10.69-85.2-15.45-115C635.15,110.23,599.32,105,585.48,79c-14.94-28-20.18-31.73-45.3-48.33C515.34,14.22,498.37-2.41,465.62.29Z" transform="translate(-151.03)" fill="#118bee" opacity="0.18"/><rect x="302.92" y="57.78" width="195.33" height="371.63" rx="22.11" fill="#118bee"/><path d="M641.25,85.66V398.14a20.67,20.67,0,0,1-20.67,20.66H482.65A20.67,20.67,0,0,1,462,398.14V85.67A20.68,20.68,0,0,1,482.66,65h21v1.63a11.63,11.63,0,0,0,11.63,11.63h71.58a11.62,11.62,0,0,0,11.63-11.63V65h22.09A20.68,20.68,0,0,1,641.25,85.66Z" transform="translate(-151.03)" fill="#118bee"/><path d="M641.25,85.66V398.14a20.67,20.67,0,0,1-20.67,20.66H482.65A20.67,20.67,0,0,1,462,398.14V85.67A20.68,20.68,0,0,1,482.66,65h21v1.63a11.63,11.63,0,0,0,11.63,11.63h71.58a11.62,11.62,0,0,0,11.63-11.63V65h22.09A20.68,20.68,0,0,1,641.25,85.66Z" transform="translate(-151.03)" opacity="0.81" fill="url(#linear-gradient)"/><rect x="340.67" y="264.77" width="131.76" height="47.72" rx="10.2" fill="#fff" opacity="0.17"/><rect x="340.67" y="331.91" width="131.76" height="47.72" rx="10.2" fill="#fff" opacity="0.17"/><path d="M675.18,291.94l-47.25-45.28s-17.2,13.62-9.86,38.27,31.21,54.32,31.21,54.32v68s.27,22.12-22.12,22.12H476.06s13.18,34.7,40,64.16S591,559.38,588.94,597.26H719.78s-33.52-119.31-22-167.85S705,320.49,675.18,291.94Z" transform="translate(-151.03)" fill="url(#linear-gradient-2)"/><path d="M475.18,198.89c-4.78-1.17-16.76-9.43-26.52-18.26-6.2-5.6-11.51-11.43-13.52-15.83-5.18-11.32-6.09-36.11,13.52-34.21,0,0,8-1.82,26.52,25.79S483,200.81,475.18,198.89Z" transform="translate(-151.03)" fill="url(#linear-gradient-3)"/><path d="M479,244.92c-5-.3-19-6.63-30.37-13.82-6.68-4.22-12.5-8.74-15.14-12.52-7.14-10.2-12.49-34.42,7.15-36.07,0,0,2.22-1,8,2,4.83,2.49,12.14,7.72,22.73,18.59C494.58,226.93,487.06,245.4,479,244.92Z" transform="translate(-151.03)" fill="url(#linear-gradient-4)"/><path d="M466.82,304.82c-3.32-.9-10.91-6.65-18.16-13.57-7-6.65-13.61-14.38-15.86-19.91-4.6-11.3-6-36.27,10.26-34.78,0,0,1.73-.53,5.6,2.68,3.65,3,9.21,9.4,17,22.72C481.73,289.39,473.32,306.57,466.82,304.82Z" transform="translate(-151.03)" fill="url(#linear-gradient-5)"/><path d="M474.28,354.47c-4.21-.32-16.45-6.48-25.62-13.06-4.32-3.1-8-6.29-9.77-9-5.6-8.45-10-28.4,5.19-29.57,0,0,1.29-.58,4.58.91,3.65,1.65,9.78,5.87,19.33,16.3C486.11,339.84,480.48,354.94,474.28,354.47Z" transform="translate(-151.03)" fill="url(#linear-gradient-6)"/><rect x="340.67" y="130.49" width="131.76" height="47.72" rx="10.2" fill="#fff" opacity="0.17"/><rect x="340.67" y="197.63" width="131.76" height="47.72" rx="10.2" fill="#fff" opacity="0.17"/><path d="M448.66,130.59v50c-6.2-5.6-11.51-11.43-13.52-15.83C430,153.48,429.05,128.69,448.66,130.59Z" transform="translate(-151.03)" opacity="0.81" fill="url(#linear-gradient-7)"/><path d="M448.66,184.5v46.6c-6.68-4.22-12.5-8.74-15.14-12.52-7.14-10.2-12.49-34.42,7.15-36.07C440.67,182.51,442.89,181.55,448.66,184.5Z" transform="translate(-151.03)" opacity="0.81" fill="url(#linear-gradient-8)"/><path d="M448.66,239.24v52c-7-6.65-13.61-14.38-15.86-19.91-4.6-11.3-6-36.27,10.26-34.78C443.06,236.56,444.79,236,448.66,239.24Z" transform="translate(-151.03)" opacity="0.81" fill="url(#linear-gradient-9)"/><path d="M448.66,303.75v37.66c-4.32-3.1-8-6.29-9.77-9-5.6-8.45-10-28.4,5.19-29.57C444.08,302.84,445.37,302.26,448.66,303.75Z" transform="translate(-151.03)" opacity="0.81" fill="url(#linear-gradient-10)"/><path d="M433.7,38V425.33a22.09,22.09,0,0,1-22.09,22.1H227.79a22.09,22.09,0,0,1-22.09-22.1V38A22.09,22.09,0,0,1,227.79,15.9H411.61A22.09,22.09,0,0,1,433.7,38Z" transform="translate(-151.03)" fill="#118bee"/><path d="M262.08,15.9V447.43H227.79a22.09,22.09,0,0,1-22.09-22.1V38A22.09,22.09,0,0,1,227.79,15.9Z" transform="translate(-151.03)" fill="#fff" opacity="0.17"/><path d="M399.29,219.61v69.82a11.21,11.21,0,0,1-11.21,11.21H205.7V208.41H388.08A11.2,11.2,0,0,1,399.29,219.61Z" transform="translate(-151.03)" opacity="0.19" fill="url(#linear-gradient-11)"/><rect x="2.33" y="191.6" width="233.8" height="92.24" rx="11.21" fill="#118bee"/><path d="M389.29,106H243.77a5.33,5.33,0,0,1-5.33-5.32h0a5.33,5.33,0,0,1,5.33-5.33H389.29a5.33,5.33,0,0,1,5.33,5.33h0A5.32,5.32,0,0,1,389.29,106Z" transform="translate(-151.03)" opacity="0.19" fill="url(#linear-gradient-12)"/><path d="M389.29,138.74H243.77a5.33,5.33,0,0,1-5.33-5.33h0a5.33,5.33,0,0,1,5.33-5.32H389.29a5.32,5.32,0,0,1,5.33,5.32h0A5.33,5.33,0,0,1,389.29,138.74Z" transform="translate(-151.03)" opacity="0.19" fill="url(#linear-gradient-13)"/><path d="M389.29,171.46H243.77a5.33,5.33,0,0,1-5.33-5.32h0a5.33,5.33,0,0,1,5.33-5.33H389.29a5.33,5.33,0,0,1,5.33,5.33h0A5.32,5.32,0,0,1,389.29,171.46Z" transform="translate(-151.03)" opacity="0.19" fill="url(#linear-gradient-14)"/><path d="M223.56,215v42.47a8.23,8.23,0,0,1-7.88,8.22,2.17,2.17,0,0,1-.36,0H172.85a8.24,8.24,0,0,1-8.24-8.24V215a8.23,8.23,0,0,1,8.24-8.23h42.47A8.23,8.23,0,0,1,223.56,215Z" transform="translate(-151.03)" opacity="0.19" fill="url(#linear-gradient-15)"/><path d="M216.62,259.24a22.23,22.23,0,0,1-.94,6.41,2.17,2.17,0,0,1-.36,0H173.13a22.26,22.26,0,0,1,14.1-27.46,12.06,12.06,0,1,1,12.68-.5A22.22,22.22,0,0,1,216.62,259.24Z" transform="translate(-151.03)" fill="#fff" opacity="0.17"/></svg>